<svg width="38" height="38" viewBox="0 0 38 38" fill="none" xmlns="http://www.w3.org/2000/svg">
<path fill-rule="evenodd" clip-rule="evenodd" d="M1.35187 19.0041C1.35187 9.11651 9.3673 1.10107 19.2548 1.10107C29.1424 1.10107 37.1578 9.11651 37.1578 19.0041C37.1578 28.8916 29.1424 36.907 19.2548 36.907C9.3673 36.907 1.35187 28.8916 1.35187 19.0041Z" stroke="white" stroke-width="1.34272"/>
<path d="M16.521 14.0679V16.2864H14.7791V18.9988H16.521V27.0604H20.0964V18.9997H22.4964C22.4964 18.9997 22.7213 17.6991 22.8303 16.2767H20.1111V14.4215C20.1111 14.1446 20.5003 13.7717 20.886 13.7717H22.8355V10.9478H20.1855C16.4319 10.9478 16.521 13.6627 16.521 14.0679Z" fill="white"/>
</svg>
