<svg width="82" height="77" viewBox="0 0 82 77" fill="none" xmlns="http://www.w3.org/2000/svg">
<path d="M81.9898 37.7608C81.7561 31.0958 78.218 24.1442 72.5236 19.0988C71.9161 18.5589 71.2885 18.0657 70.641 17.5925C70.434 11.374 66.0815 5.46886 60.841 2.68955C54.9597 -0.436332 47.1357 -0.862892 39.9192 1.54317C39.1515 1.80311 38.4105 2.09637 37.6762 2.41629C32.182 -0.509649 24.8787 0.296815 19.8452 3.43603C14.1975 6.96181 9.91835 13.5135 8.3896 20.9583C8.22938 21.7448 8.1159 22.5379 8.02244 23.3311C2.73525 26.6236 -0.208762 33.3286 0.0115379 39.2604C0.245189 45.9254 3.78334 52.8837 9.48443 57.9224C10.0853 58.4556 10.7128 58.9555 11.3603 59.4353C11.5739 65.6471 15.9265 71.5523 21.1603 74.3316C24.7189 76.1381 28.6642 77.0531 32.656 76.9976C35.8608 76.9902 39.0435 76.4681 42.0821 75.4514C42.8499 75.1981 43.5909 74.9048 44.3252 74.5849C46.69 75.8085 49.3189 76.4355 51.9823 76.4111C55.5715 76.4102 59.0912 75.4233 62.1561 73.5585C67.8038 70.0327 72.0896 63.4877 73.6117 56.0429C73.7719 55.2497 73.8854 54.4566 73.9789 53.6635C79.2527 50.4043 82.1967 43.6993 81.9898 37.7608ZM72.9308 52.9636C70.523 54.2942 67.7634 54.8527 65.0267 54.5632C63.5768 54.421 62.1663 54.0096 60.8677 53.3502C61.4464 50.7926 61.7065 48.1734 61.6421 45.5522C61.768 45.6196 61.8998 45.6754 62.036 45.7188C62.4867 45.8518 62.9657 45.8561 63.4188 45.7312C63.8719 45.6063 64.2809 45.3573 64.5994 45.0123C65.023 44.5808 65.326 44.0462 65.4782 43.4615C65.6305 42.8769 65.6267 42.2626 65.4673 41.6798C65.1215 40.6663 64.4427 39.7993 63.541 39.2197C62.6393 38.6401 61.5677 38.382 60.5005 38.4873C59.5342 38.6216 58.6061 38.9538 57.7744 39.463C56.9427 39.9722 56.2253 40.6475 55.6673 41.4465C53.1572 44.8523 54.6393 49.2446 57.0759 51.8906C57.8211 52.6751 58.6754 53.3485 59.6127 53.8901C59.2581 55.5443 58.7829 57.1705 58.1907 58.7555C55.5204 65.1139 51.3948 69.6795 45.667 72.752C45.2598 72.9653 44.8326 73.1519 44.412 73.3452C42.0585 71.9389 40.1943 69.8451 39.0714 67.3467C38.4711 66.0204 38.1225 64.5944 38.0433 63.1411C40.5519 62.3645 42.9536 61.2786 45.193 59.9086C45.198 60.0521 45.2159 60.1948 45.2464 60.3351C45.3582 60.791 45.5947 61.207 45.9295 61.5365C46.2642 61.866 46.6842 62.0962 47.1424 62.2013C47.7236 62.348 48.3331 62.3416 48.9111 62.1827C49.4892 62.0239 50.016 61.7179 50.4402 61.2949C51.148 60.4898 51.5617 59.469 51.6139 58.399C51.666 57.329 51.3535 56.2729 50.7273 55.403C50.1277 54.6354 49.3759 53.9995 48.519 53.535C47.6622 53.0706 46.7185 52.7876 45.7471 52.7037C41.528 52.2372 38.4639 55.7163 37.3958 59.1421C37.0764 60.181 36.9122 61.2612 36.9084 62.348C35.298 62.8699 33.6513 63.2731 31.9817 63.5543C25.1458 64.3608 19.1376 63.1211 13.6234 59.6953C13.2295 59.4487 12.8557 59.1754 12.4752 58.9088C12.5244 56.1666 13.4195 53.5063 15.0387 51.2907C15.8865 50.109 16.9484 49.0963 18.1696 48.3048C20.0981 50.0813 22.2395 51.6126 24.5449 52.8637C24.4255 52.9423 24.3117 53.0292 24.2045 53.1236C23.8647 53.4482 23.6223 53.8608 23.5044 54.3152C23.3865 54.7696 23.3977 55.2479 23.5369 55.6963C23.7008 56.2723 24.0114 56.7961 24.4385 57.2166C24.8655 57.6371 25.3944 57.94 25.9736 58.0957C27.0212 58.3083 28.1101 58.1604 29.0628 57.6763C30.0156 57.1923 30.7762 56.4004 31.2207 55.4297C31.5826 54.5272 31.7563 53.5604 31.731 52.5886C31.7058 51.6168 31.4822 50.6603 31.0738 49.7778C29.3715 45.9054 24.8187 44.9856 21.3072 45.7788C20.25 46.0259 19.2339 46.4232 18.2898 46.9585C17.0349 45.8269 15.8636 44.6062 14.785 43.3061C10.6193 37.7941 8.71004 31.9756 8.93702 25.4972C8.93702 25.0306 9.0038 24.5707 9.04385 24.1109C11.45 22.789 14.2026 22.231 16.9346 22.5113C18.3843 22.6588 19.7943 23.0722 21.0936 23.7309C20.5149 26.2863 20.2548 28.9033 20.3192 31.5223C20.1933 31.4549 20.0614 31.3991 19.9253 31.3557C19.4744 31.2251 18.996 31.222 18.5434 31.3467C18.0908 31.4714 17.6818 31.7191 17.3618 32.0622C16.9411 32.4955 16.64 33.0302 16.4879 33.6143C16.3358 34.1983 16.3379 34.8117 16.494 35.3947C16.8389 36.4083 17.5178 37.2753 18.4199 37.8539C19.322 38.4326 20.394 38.6887 21.4607 38.5806C22.4268 38.4478 23.3548 38.117 24.1866 37.6089C25.0184 37.1007 25.7359 36.4263 26.294 35.628C28.8041 32.2155 27.3221 27.8233 24.8854 25.1839C24.1418 24.3977 23.2872 23.7241 22.3486 23.1844C22.7042 21.5304 23.1794 19.9044 23.7706 18.319C26.4409 11.9672 30.5665 7.4017 36.2943 4.36246C36.7015 4.14252 37.1288 3.96257 37.5493 3.76262C39.9006 5.17157 41.7641 7.26464 42.8899 9.76112C43.4894 11.0854 43.838 12.509 43.918 13.9601C41.4116 14.7423 39.0105 15.8279 36.7682 17.1926C36.7636 17.0513 36.7457 16.9107 36.7149 16.7727C36.6038 16.3165 36.3675 15.9001 36.0326 15.5705C35.6977 15.2408 35.2774 15.0109 34.8189 14.9065C34.2381 14.7616 33.6297 14.7683 33.0522 14.9258C32.4746 15.0834 31.9474 15.3866 31.5211 15.8063C30.8133 16.6114 30.3995 17.6322 30.3474 18.7022C30.2953 19.7722 30.6078 20.8282 31.234 21.6981C31.8371 22.4627 32.5895 23.0968 33.4456 23.5619C34.3018 24.0271 35.2437 24.3137 36.2142 24.4041C40.4266 24.864 43.4974 21.3849 44.5655 17.9591C44.8849 16.9225 45.0491 15.8444 45.0529 14.7599C46.6633 14.238 48.31 13.8348 49.9796 13.5535C56.8356 12.7137 62.8504 13.9667 68.3512 17.3992C68.7451 17.6458 69.1189 17.9257 69.4995 18.1923C69.4477 20.9341 68.5527 23.5936 66.936 25.8104C66.0863 26.9905 65.0246 28.0029 63.805 28.7964C61.8779 27.0163 59.7363 25.4827 57.4297 24.2308C57.549 24.1545 57.6628 24.0699 57.7702 23.9776C58.1092 23.6526 58.3512 23.2399 58.4691 22.7857C58.5869 22.3314 58.5761 21.8533 58.4377 21.4049C58.2754 20.8284 57.9662 20.3038 57.5404 19.8821C57.1145 19.4604 56.5865 19.1561 56.0078 18.9988C54.9554 18.7896 53.863 18.9425 52.9089 19.4328C51.9547 19.923 51.1951 20.7215 50.7539 21.6981C50.3872 22.6007 50.2109 23.5691 50.2361 24.5427C50.2614 25.5164 50.4877 26.4744 50.9008 27.3567C52.6031 31.2291 57.156 32.1488 60.6674 31.3557C61.7264 31.1146 62.7435 30.717 63.6849 30.176C64.9423 31.3073 66.1138 32.5304 67.1896 33.8351C71.3553 39.347 73.2646 45.1656 73.0376 51.644C73.0376 52.0439 72.9709 52.5038 72.9308 52.9636ZM60.9145 41.4265C60.8833 41.4456 60.8561 41.4705 60.8343 41.4999C60.5727 41.7734 60.3767 42.1027 60.2611 42.4629C60.1454 42.8232 60.1131 43.2049 60.1667 43.5793C60.1636 43.6259 60.1636 43.6727 60.1667 43.7193V43.7593C60.1641 43.797 60.1641 43.8349 60.1667 43.8726C60.551 46.8348 60.4154 49.8412 59.7662 52.757C58.374 51.8583 57.227 50.6284 56.4283 49.1779C55.528 47.6793 55.2142 45.9014 55.5471 44.1858C55.7777 43.3279 56.1871 42.5283 56.7485 41.8392C57.3098 41.1501 58.0106 40.587 58.8049 40.1868C60.3403 39.4004 62.5367 39.3471 63.8318 41.04C63.3633 40.7771 62.8217 40.6739 62.2893 40.7461C61.7568 40.8182 61.2624 41.0618 60.881 41.4398L60.9145 41.4265ZM46.2078 57.6958L46.101 57.7824C46.0683 57.802 46.039 57.8268 46.0142 57.8557C43.6355 59.6717 40.9587 61.0609 38.1034 61.9614C38.175 60.2966 38.6639 58.6764 39.5253 57.2492C40.3769 55.7218 41.7626 54.5614 43.4173 53.9901C44.2793 53.7552 45.1815 53.7056 46.0641 53.8446C46.9468 53.9836 47.7898 54.3081 48.5376 54.7965C49.9795 55.7296 51.1278 57.6025 50.3067 59.5687C50.3008 59.0319 50.1196 58.5117 49.7907 58.0871C49.4618 57.6625 49.003 57.3566 48.4842 57.2159C48.4511 57.2096 48.4171 57.2096 48.3841 57.2159C48.0089 57.1211 47.6168 57.1151 47.2389 57.1984C46.8611 57.2817 46.508 57.4521 46.2078 57.6958ZM28.477 55.643C28.594 55.2176 28.594 54.7686 28.477 54.3433C28.4828 54.3102 28.4828 54.2764 28.477 54.2433C28.3694 53.8805 28.1807 53.5468 27.9251 53.2674C27.6695 52.988 27.3538 52.7702 27.0016 52.6304L26.8681 52.5771H26.8281L26.7279 52.5437C23.9509 51.3815 21.3999 49.7414 19.191 47.6983C20.606 46.9635 22.1757 46.5751 23.7706 46.5652H23.9842C25.7335 46.5387 27.4309 47.1582 28.7506 48.3048C29.3876 48.9302 29.8833 49.6843 30.2045 50.5165C30.5257 51.3487 30.6651 52.2399 30.6132 53.1303C30.5331 54.8498 29.4783 56.776 27.3688 57.0493C27.9055 56.7246 28.3008 56.2109 28.477 55.6096V55.643ZM21.0402 35.648C21.0596 35.6344 21.0775 35.6187 21.0936 35.6013C21.3544 35.3272 21.5499 34.9978 21.6654 34.6378C21.781 34.2777 21.8138 33.8963 21.7612 33.5218C21.7612 33.4752 21.7612 33.4352 21.7612 33.3752V33.3352C21.7643 33.2997 21.7643 33.264 21.7612 33.2286C21.3771 30.2663 21.5126 27.26 22.1617 24.3441C23.5547 25.2448 24.7018 26.477 25.4996 27.9299C26.3981 29.4292 26.7118 31.2064 26.3808 32.922C26.1482 33.779 25.7381 34.5778 25.177 35.2667C24.6158 35.9555 23.916 36.5191 23.123 36.921C21.5876 37.7008 19.3913 37.7541 18.1029 36.0679C18.5715 36.3259 19.1108 36.4264 19.6411 36.3543C20.1714 36.2823 20.6643 36.0416 21.0468 35.668L21.0402 35.648ZM35.7802 19.412L35.887 19.3254L35.9738 19.2521C38.3561 17.3933 41.0474 15.9674 43.9247 15.0398C43.85 16.704 43.3613 18.3235 42.5027 19.752C41.6524 21.2789 40.266 22.4375 38.6107 23.0045C37.7489 23.2411 36.8464 23.2915 35.9635 23.1525C35.0806 23.0134 34.2375 22.688 33.4905 22.198C32.0485 21.2716 30.9002 19.392 31.7214 17.4325C31.7246 18.0582 31.9628 18.6599 32.3889 19.1188C32.6935 19.4373 33.0788 19.6676 33.5038 19.7853C33.5393 19.7902 33.5752 19.7902 33.6106 19.7853C33.9798 19.8866 34.3674 19.9021 34.7435 19.8305C35.1197 19.7588 35.4743 19.602 35.7802 19.372V19.412ZM58.2241 30.4959H58.0038C56.2545 30.5225 54.5571 29.903 53.2373 28.7564C52.601 28.1292 52.1057 27.3739 51.7845 26.5407C51.4634 25.7075 51.3237 24.8155 51.3748 23.9242C51.4549 22.2113 52.5097 20.2785 54.6259 20.0119C54.1655 20.2861 53.8067 20.7019 53.6032 21.1971C53.3998 21.6922 53.3627 22.2399 53.4977 22.7579C53.4916 22.7932 53.4916 22.8292 53.4977 22.8645C53.6066 23.2259 53.7959 23.558 54.0513 23.8361C54.3068 24.1143 54.6218 24.3312 54.973 24.4708L55.0598 24.5108H55.1466L55.2534 24.5441C58.0122 25.6955 60.5508 27.3145 62.7569 29.3296C61.3547 30.053 59.8024 30.4388 58.2241 30.4559V30.4959ZM49.7859 12.3738C48.1732 12.6738 46.5795 13.0677 45.0128 13.5535C44.7374 10.7627 43.6567 8.11174 41.9019 5.92208C41.0338 4.83489 40.0025 3.88837 38.8444 3.11611C43.7433 1.16005 49.0967 0.628574 54.2854 1.58316C62.1428 3.08279 68.191 8.78802 69.3393 15.7863C69.3927 16.1129 69.4193 16.4528 69.4461 16.7594C63.6421 12.9658 56.6551 11.4073 49.7859 12.3738ZM22.7158 17.8458C22.1742 19.3876 21.7283 20.9613 21.3806 22.5579C18.8218 21.3986 15.9798 21.0094 13.2028 21.4382C11.8232 21.6371 10.4844 22.0557 9.23743 22.6779C9.98775 17.4621 12.2029 12.5653 15.6261 8.55475C20.8532 2.51626 28.8241 0.136853 35.4665 2.64289C35.7802 2.76286 36.074 2.90284 36.3677 3.03614C30.1656 6.15218 25.3125 11.4168 22.7158 17.8458ZM13.9238 43.9859C14.9868 45.2304 16.1238 46.41 17.3284 47.5183C15.0523 49.1558 13.3013 51.418 12.2883 54.03C11.7693 55.321 11.4627 56.6871 11.3804 58.0757C7.23009 54.8218 4.09084 50.458 2.32805 45.4922C-0.302201 37.9474 1.66047 29.8694 7.12123 25.3772C7.37491 25.1639 7.64193 24.9773 7.90897 24.7907C7.51324 31.706 9.65118 38.5287 13.9238 43.9859ZM28.1899 64.9273C29.5298 64.9285 30.8681 64.8372 32.1954 64.6541C33.8096 64.361 35.4038 63.967 36.9685 63.4744C37.2421 66.2668 38.3256 68.9188 40.0861 71.1058C40.9514 72.1979 41.9858 73.1452 43.1502 73.9117C38.2475 75.8704 32.8897 76.4042 27.6959 75.4514C19.8452 73.9517 13.797 68.2398 12.6421 61.2416C12.5887 60.915 12.562 60.5751 12.5353 60.2485C17.1804 63.3082 22.6248 64.9354 28.1899 64.9273ZM59.2722 59.1887C59.813 57.6421 60.2588 56.064 60.6074 54.4633C62.4648 55.3214 64.4888 55.7605 66.5354 55.7496C67.2882 55.7489 68.0399 55.6955 68.7852 55.5896C70.1648 55.3907 71.5036 54.9722 72.7506 54.35C72.0027 59.5665 69.7873 64.4639 66.3619 68.4731C61.1347 74.5183 53.1639 76.891 46.5215 74.385C46.2078 74.2717 45.914 74.1317 45.6203 73.9917C51.8235 70.8803 56.6773 65.6172 59.2722 59.1887ZM68.0642 33.0353C67.0021 31.7879 65.8651 30.606 64.6595 29.4962C66.93 27.8755 68.6808 25.632 69.6997 23.0378C70.218 21.7467 70.5246 20.3806 70.6076 18.9921C74.7701 22.2321 77.9274 26.5837 79.7134 31.5423C82.3369 39.0804 80.3809 47.1651 74.9135 51.6573C74.6598 51.8639 74.3928 52.0505 74.1258 52.2372C74.5105 45.3137 72.3556 38.4874 68.0642 33.0353Z" fill="white"/>
</svg>
