<svg width="38" height="38" viewBox="0 0 38 38" fill="none" xmlns="http://www.w3.org/2000/svg">
<path fill-rule="evenodd" clip-rule="evenodd" d="M0.907776 19.0041C0.907776 9.11651 8.92321 1.10107 18.8108 1.10107C28.6983 1.10107 36.7137 9.11651 36.7137 19.0041C36.7137 28.8916 28.6983 36.907 18.8108 36.907C8.92321 36.907 0.907776 28.8916 0.907776 19.0041Z" stroke="white" stroke-width="1.34272"/>
<path d="M26.2269 15.9528C26.2186 15.3263 26.1011 14.7062 25.8798 14.1199C25.6879 13.6255 25.3948 13.1764 25.0192 12.8014C24.6436 12.4264 24.1937 12.1338 23.6984 11.9422C23.1188 11.725 22.5064 11.6075 21.8874 11.5948C21.0904 11.5592 20.8377 11.5493 18.8146 11.5493C16.7914 11.5493 16.5321 11.5493 15.7409 11.5948C15.1222 11.6076 14.5101 11.725 13.9307 11.9422C13.4354 12.1337 12.9855 12.4262 12.6098 12.8012C12.2342 13.1762 11.9411 13.6254 11.7494 14.1199C11.5313 14.6982 11.4139 15.3094 11.4022 15.9271C11.3666 16.7236 11.3558 16.9759 11.3558 18.9957C11.3558 21.0154 11.3558 21.2735 11.4022 22.0642C11.4147 22.6828 11.5315 23.2932 11.7494 23.873C11.9415 24.3674 12.2348 24.8164 12.6105 25.1912C12.9863 25.5661 13.4362 25.8585 13.9316 26.05C14.5094 26.2759 15.1216 26.4018 15.7418 26.4221C16.5396 26.4577 16.7923 26.4685 18.8154 26.4685C20.8385 26.4685 21.0979 26.4685 21.889 26.4221C22.508 26.41 23.1205 26.2928 23.7001 26.0756C24.1953 25.8838 24.645 25.5911 25.0205 25.2161C25.3961 24.8412 25.6893 24.3922 25.8815 23.8979C26.0993 23.3189 26.2162 22.7085 26.2286 22.089C26.2642 21.2933 26.275 21.0411 26.275 19.0205C26.2733 17.0007 26.2733 16.7443 26.2269 15.9528ZM18.8096 22.8152C16.6937 22.8152 14.9796 21.1039 14.9796 18.9915C14.9796 16.8791 16.6937 15.1679 18.8096 15.1679C19.8254 15.1679 20.7996 15.5707 21.5179 16.2878C22.2361 17.0049 22.6396 17.9774 22.6396 18.9915C22.6396 20.0056 22.2361 20.9782 21.5179 21.6953C20.7996 22.4123 19.8254 22.8152 18.8096 22.8152ZM22.7921 15.918C22.6748 15.9181 22.5586 15.8952 22.4502 15.8504C22.3418 15.8056 22.2433 15.7399 22.1603 15.6571C22.0774 15.5743 22.0116 15.476 21.9667 15.3678C21.9219 15.2595 21.8989 15.1435 21.899 15.0264C21.899 14.9094 21.9221 14.7935 21.9669 14.6854C22.0118 14.5773 22.0776 14.479 22.1604 14.3963C22.2433 14.3135 22.3417 14.2479 22.4501 14.2031C22.5584 14.1583 22.6744 14.1352 22.7917 14.1352C22.9089 14.1352 23.025 14.1583 23.1333 14.2031C23.2416 14.2479 23.34 14.3135 23.4229 14.3963C23.5058 14.479 23.5715 14.5773 23.6164 14.6854C23.6613 14.7935 23.6843 14.9094 23.6843 15.0264C23.6843 15.5194 23.285 15.918 22.7921 15.918Z" fill="white"/>
<path d="M18.809 21.4749C20.183 21.4749 21.2969 20.3628 21.2969 18.9911C21.2969 17.6193 20.183 16.5073 18.809 16.5073C17.435 16.5073 16.3211 17.6193 16.3211 18.9911C16.3211 20.3628 17.435 21.4749 18.809 21.4749Z" fill="white"/>
</svg>
