<svg width="17" height="17" viewBox="0 0 17 17" fill="none" xmlns="http://www.w3.org/2000/svg">
<path d="M16.859 4.92258C16.8497 4.22262 16.7184 3.52962 16.4711 2.87458C16.2567 2.32205 15.9292 1.82026 15.5095 1.40126C15.0898 0.982266 14.5871 0.655276 14.0337 0.441187C13.386 0.198455 12.7017 0.0672059 12.0101 0.0530277C11.1195 0.0132876 10.8372 0.00219727 8.57652 0.00219727C6.3159 0.00219727 6.02614 0.00219733 5.14207 0.0530277C4.4507 0.0673102 3.76676 0.198558 3.11935 0.441187C2.56582 0.655127 2.06312 0.982064 1.6434 1.40108C1.22369 1.8201 0.896205 2.32197 0.681909 2.87458C0.438286 3.52071 0.307103 4.20366 0.294028 4.89393C0.254222 5.78393 0.242188 6.0658 0.242188 8.32267C0.242188 10.5795 0.242187 10.8679 0.294028 11.7514C0.307914 12.4427 0.438442 13.1248 0.681909 13.7726C0.896564 14.3251 1.22429 14.8267 1.64414 15.2456C2.064 15.6644 2.56675 15.9912 3.12028 16.2051C3.76591 16.4576 4.44997 16.5982 5.143 16.621C6.03447 16.6607 6.31682 16.6727 8.57745 16.6727C10.8381 16.6727 11.1278 16.6727 12.0119 16.621C12.7036 16.6074 13.3879 16.4764 14.0355 16.2337C14.5888 16.0194 15.0913 15.6923 15.511 15.2734C15.9307 14.8544 16.2583 14.3527 16.473 13.8003C16.7165 13.1534 16.847 12.4714 16.8609 11.7791C16.9007 10.8901 16.9127 10.6082 16.9127 8.3504C16.9109 6.09353 16.9109 5.80703 16.859 4.92258ZM8.57097 12.5906C6.20666 12.5906 4.29133 10.6784 4.29133 8.31805C4.29133 5.95767 6.20666 4.04553 8.57097 4.04553C9.706 4.04553 10.7945 4.49567 11.5971 5.29692C12.3997 6.09817 12.8506 7.18491 12.8506 8.31805C12.8506 9.4512 12.3997 10.5379 11.5971 11.3392C10.7945 12.1404 9.706 12.5906 8.57097 12.5906ZM13.0209 4.88376C12.8899 4.88389 12.76 4.8582 12.6389 4.80818C12.5178 4.75815 12.4077 4.68477 12.315 4.59223C12.2223 4.4997 12.1488 4.38982 12.0987 4.26889C12.0486 4.14796 12.0229 4.01836 12.023 3.88749C12.023 3.75672 12.0488 3.62723 12.0989 3.50641C12.1491 3.38559 12.2225 3.27581 12.3152 3.18334C12.4078 3.09087 12.5178 3.01752 12.6388 2.96748C12.7598 2.91743 12.8895 2.89168 13.0205 2.89168C13.1515 2.89168 13.2812 2.91743 13.4022 2.96748C13.5232 3.01752 13.6332 3.09087 13.7258 3.18334C13.8184 3.27581 13.8919 3.38559 13.942 3.50641C13.9922 3.62723 14.018 3.75672 14.018 3.88749C14.018 4.43831 13.5718 4.88376 13.0209 4.88376Z" fill="#5A6EA3"/>
<path d="M8.56903 11.0939C10.1044 11.0939 11.349 9.85133 11.349 8.31855C11.349 6.78578 10.1044 5.54321 8.56903 5.54321C7.03369 5.54321 5.78906 6.78578 5.78906 8.31855C5.78906 9.85133 7.03369 11.0939 8.56903 11.0939Z" fill="#5A6EA3"/>
</svg>
