<svg width="16" height="16" viewBox="0 0 16 16" fill="none" xmlns="http://www.w3.org/2000/svg">
<path d="M3.91643 2.57693C3.8944 1.58437 3.17929 0.828369 2.01806 0.828369C0.856828 0.828369 0.0976562 1.58437 0.0976562 2.57693C0.0976562 3.54894 0.834389 4.32671 1.97399 4.32671H1.99569C3.17929 4.32671 3.91643 3.54894 3.91643 2.57693Z" fill="#5A6EA3"/>
<path d="M3.69286 5.70848H0.298385V15.8316H3.69286V5.70848Z" fill="#5A6EA3"/>
<path d="M12.0263 5.47073C14.2601 5.47073 15.9347 6.91789 15.9347 10.0273L15.9345 15.8316H12.5402V10.4157C12.5402 9.05534 12.049 8.12707 10.8202 8.12707C9.88237 8.12707 9.32378 8.75286 9.07845 9.35728C8.9887 9.5739 8.96667 9.8757 8.96667 10.1783V15.8318H5.57178C5.57178 15.8318 5.61652 6.65861 5.57178 5.70871H8.96667V7.14257C9.4172 6.45329 10.2241 5.47073 12.0263 5.47073Z" fill="#5A6EA3"/>
</svg>
