<svg width="38" height="38" viewBox="0 0 38 38" fill="none" xmlns="http://www.w3.org/2000/svg">
<path fill-rule="evenodd" clip-rule="evenodd" d="M0.795959 19.0041C0.795959 9.11651 8.8114 1.10107 18.6989 1.10107C28.5865 1.10107 36.6019 9.11651 36.6019 19.0041C36.6019 28.8916 28.5865 36.907 18.6989 36.907C8.8114 36.907 0.795959 28.8916 0.795959 19.0041Z" stroke="white" stroke-width="1.34272"/>
<path d="M15.4029 13.8554C15.3832 12.9671 14.7432 12.2905 13.7039 12.2905C12.6647 12.2905 11.9853 12.9671 11.9853 13.8554C11.9853 14.7253 12.6446 15.4213 13.6645 15.4213H13.6839C14.7432 15.4213 15.4029 14.7253 15.4029 13.8554Z" fill="white"/>
<path d="M15.2028 16.6579H12.1649V25.7175H15.2028V16.6579Z" fill="white"/>
<path d="M22.6608 16.4452C24.6598 16.4452 26.1585 17.7403 26.1585 20.523L26.1584 25.7175H23.1206V20.8706C23.1206 19.6532 22.681 18.8224 21.5813 18.8224C20.742 18.8224 20.2421 19.3825 20.0226 19.9234C19.9423 20.1173 19.9225 20.3874 19.9225 20.6581V25.7178H16.8843C16.8843 25.7178 16.9244 17.5083 16.8843 16.6581H19.9225V17.9414C20.3257 17.3245 21.0479 16.4452 22.6608 16.4452Z" fill="white"/>
</svg>
