<svg width="73" height="68" viewBox="0 0 73 68" fill="none" xmlns="http://www.w3.org/2000/svg">
<path d="M1 60.4194C1 60.4194 3.24178 61.8286 4.85956 61.9632C7.4828 62.1813 8.40645 59.1182 11.0348 59.2615C13.1897 59.379 13.9036 61.3766 16.0523 61.5772C18.7577 61.8299 19.8986 59.1495 22.6135 59.2615C25.0465 59.3618 25.9718 61.4387 28.4028 61.5772C31.4499 61.7508 32.6894 58.6953 35.736 58.8755C38.5629 59.0427 39.466 61.902 42.2972 61.9632C45.2655 62.0274 46.2755 58.8755 49.2444 58.8755C52.2134 58.8755 53.2378 62.2623 56.1916 61.9632C58.6096 61.7183 59.177 59.1204 61.595 58.8755C64.5489 58.5764 65.6076 62.4132 68.5422 61.9632C70.2079 61.7078 72.4018 60.0334 72.4018 60.0334" stroke="white" stroke-width="1.6"/>
<path d="M1 52.8367C1 52.8367 3.24178 54.2459 4.85956 54.3805C7.4828 54.5986 8.40645 51.5355 11.0348 51.6788C13.1897 51.7963 13.9036 53.7939 16.0523 53.9945C18.7577 54.2472 19.8986 51.5668 22.6135 51.6788C25.0465 51.7791 25.9718 53.856 28.4028 53.9945C31.4499 54.1681 32.6894 51.1126 35.736 51.2928C38.5629 51.46 39.466 54.3193 42.2972 54.3805C45.2655 54.4447 46.2755 51.2928 49.2444 51.2928" stroke="white" stroke-width="1.6"/>
<path d="M3.70178 47.297L18.8903 22.4767C19.1858 21.9938 19.8835 21.9828 20.1941 22.4561L27.631 33.7886" stroke="white" stroke-width="1.6"/>
<path d="M22.2275 43.8241L35.1559 21.2917C35.4311 20.8122 36.1063 20.7689 36.4404 21.2093L44.227 31.4735" stroke="white" stroke-width="1.6"/>
<path d="M39.2096 42.2797L50.5438 20.7081C50.8221 20.1785 51.571 20.1531 51.8845 20.6626L72.0638 53.4538C72.3802 53.9681 72.0102 54.6303 71.4063 54.6303H52.718" stroke="white" stroke-width="1.6"/>
<circle cx="36" cy="11" r="3.35" stroke="white" stroke-width="1.3"/>
</svg>
