<svg width="54" height="53" viewBox="0 0 54 53" fill="none" xmlns="http://www.w3.org/2000/svg">
<path d="M2.54706 39.062C1.55964 39.062 1.07052 38.6975 1.07052 38.6975V37.4009H1.13711C1.17156 38.4345 1.43334 38.9859 2.54706 38.9859C3.71588 38.9859 3.81003 37.7654 3.03846 37.2255L1.89031 36.4619C1.40578 36.125 0.668664 35.5505 1.16467 34.713C1.16467 34.713 1.49305 34.187 2.36794 34.187C3.25432 34.187 3.80543 34.5031 3.80543 34.5031V35.6359H3.72507C3.69751 34.8123 3.50921 34.2585 2.36794 34.2585C1.64231 34.2585 0.944222 35.2229 2.02579 35.9243L3.17395 36.6811C4.08099 37.2809 4.12003 38.0377 3.84677 38.5037C3.84448 38.5106 3.56892 39.062 2.54706 39.062Z" fill="white" stroke="white" stroke-width="0.2664" stroke-miterlimit="10"/>
<path d="M8.14274 34.252V34.3189C7.8534 34.3189 7.7271 34.3996 7.7271 34.8172V38.3264C7.7271 38.7855 7.86258 38.9263 8.14274 38.9263V39.0001H6.75806V38.9263C7.04739 38.9263 7.18058 38.7855 7.18058 38.3264V34.8172C7.18058 34.3996 7.05199 34.3189 6.75806 34.3189V34.252H8.14274Z" fill="white" stroke="white" stroke-width="0.2664" stroke-miterlimit="10"/>
<path d="M14.9262 37.1126V37.1865C14.5221 37.1865 14.49 37.2211 14.49 38.7784C14.0743 38.9399 13.5301 39.0622 12.8113 39.0622C11.3601 39.0622 10.662 37.9686 10.662 36.6258C10.662 35.283 11.3601 34.1895 12.8113 34.1895C13.6702 34.1895 14.0812 34.3117 14.4968 34.5886L14.4371 35.6476H14.3292C14.2833 34.4871 13.6036 34.2633 12.8113 34.2633C12.0467 34.2633 11.3394 34.7686 11.3394 36.6258C11.3394 38.4808 12.0582 38.9883 12.8113 38.9883C13.5967 38.9883 14.0261 38.7853 14.0261 38.2662C14.0261 37.2003 13.9802 37.1865 13.5025 37.1865V37.1126H14.9262Z" fill="white" stroke="white" stroke-width="0.2664" stroke-miterlimit="10"/>
<path d="M22.1832 34.252V34.3189C21.2371 34.3189 21.2555 34.9741 21.2555 35.9108V39.0024H21.1154L18.2932 35.304V37.3297C18.2932 38.2272 18.2932 38.9286 19.1589 38.9286V39.0024H17.2645V38.9286C18.2105 38.9286 18.2174 38.241 18.2174 37.3297V35.2163L17.935 34.8449C17.5056 34.305 17.3104 34.3327 17.1359 34.3189V34.252H18.1761L21.1797 38.2203V35.9131C21.1797 34.9741 21.1797 34.3212 20.3209 34.3212V34.2543H22.1832V34.252Z" fill="white" stroke="white" stroke-width="0.2664" stroke-miterlimit="10"/>
<path d="M28.5776 39.0024H27.2412V38.9286C27.5236 38.9286 27.5971 38.7117 27.356 38.1464L27.1149 37.5051H25.3008C25.0183 38.3149 24.791 38.9424 25.6636 38.9286V39.0024H24.2399V38.9286C24.5361 38.9286 24.7037 38.8547 25.248 37.3228L26.3571 34.252H26.403C26.8118 35.244 28.0357 38.3495 28.0357 38.3495C28.2515 38.8894 28.3847 38.917 28.5799 38.9309V39.0024H28.5776ZM27.085 37.4312L26.1711 35.0618L25.3191 37.4312H27.085Z" fill="white" stroke="white" stroke-width="0.2664" stroke-miterlimit="10"/>
<path d="M34.4016 34.2518V35.3593H34.3282C34.3144 34.3256 33.3476 34.321 33.2053 34.321H32.6748V38.4278C32.6748 38.8661 32.8356 38.9261 33.118 38.9261V39H31.7218V38.9261C32.0043 38.9261 32.165 38.8661 32.165 38.4278V34.3187H31.6346C31.3246 34.3187 30.5255 34.3256 30.514 35.3569H30.4474V34.2495H34.4016V34.2518Z" fill="white" stroke="white" stroke-width="0.2664" stroke-miterlimit="10"/>
<path d="M37.1094 37.4034V34.907C37.1094 34.4272 36.9624 34.3256 36.6662 34.3256V34.2518H38.1106V34.3256C37.8212 34.3256 37.6192 34.3672 37.6192 34.9186V37.4634C37.6192 38.3263 38.1152 38.8131 38.8959 38.8131C39.6675 38.8131 40.1589 38.3009 40.1589 37.4219V35.673C40.1589 34.7156 40.1313 34.3233 39.4195 34.3233V34.2495H41.0177V34.3233C40.2048 34.3233 40.2324 34.7156 40.2324 35.673V37.4219C40.2393 38.5155 39.5596 39.0622 38.6135 39.0622C37.7684 39.0622 37.1094 38.5039 37.1094 37.4034Z" fill="white" stroke="white" stroke-width="0.2664" stroke-miterlimit="10"/>
<path d="M47.0771 39.0024H46.6201C45.922 39.0024 45.9886 38.9955 45.6465 37.5304C45.4789 36.8152 44.767 36.8152 44.5052 36.8152H44.1906V38.3541C44.1906 38.8271 44.3123 38.9286 44.5925 38.9286V39.0024H43.3088V38.9286C43.5982 38.9286 43.6923 38.8478 43.6923 38.2203V34.7987C43.6923 34.3812 43.6051 34.3258 43.3088 34.3258V34.252H44.3973C45.7337 34.252 46.379 34.4135 46.379 35.5417C46.379 36.4991 45.8417 36.7621 45.1574 36.7829C45.6074 36.8291 46.0231 36.7552 46.3859 38.3633C46.5007 38.8824 46.9026 38.917 47.0771 38.9309V39.0024ZM44.3973 34.3258H44.1883V36.7414H44.3973C45.2171 36.7414 45.8072 36.7483 45.8072 35.5394C45.8072 34.2796 45.1482 34.3258 44.3973 34.3258Z" fill="white" stroke="white" stroke-width="0.2664" stroke-miterlimit="10"/>
<path d="M52.4788 37.6319V39.0024H49.3076V38.9286C49.59 38.9286 49.6497 38.7394 49.6497 38.2803V34.8657C49.6497 34.4481 49.6015 34.3258 49.3076 34.3258V34.252H52.3915V35.4332H52.318C52.2836 34.3396 51.4523 34.3258 50.6325 34.3258H50.2031V36.566H50.7405C51.0091 36.566 51.574 36.5591 51.5924 35.897H51.6659V37.3136H51.5924C51.5717 36.6445 50.9953 36.6399 50.7405 36.6399H50.2031V38.9286H50.5453C51.4454 38.9286 52.3387 38.9747 52.4053 37.6319H52.4788Z" fill="white" stroke="white" stroke-width="0.2664" stroke-miterlimit="10"/>
<path d="M4.71872 45.5037L4.78301 46.505C4.30079 46.8257 3.97471 46.9111 3.27893 46.9111C1.95166 46.9111 1.01935 46.0805 1.01935 44.5486C1.01935 42.9912 1.94936 42.186 3.27893 42.186C3.94945 42.186 4.37197 42.2506 4.78301 42.5852L4.71872 43.5865H4.64753C4.55568 42.4098 3.69685 42.2576 3.28122 42.2576C2.62447 42.2576 1.68529 42.479 1.68529 44.5463C1.68529 46.6596 2.64285 46.835 3.28122 46.835C3.67848 46.835 4.60849 46.6389 4.64753 45.5014H4.71872V45.5037Z" fill="white" stroke="white" stroke-width="0.2664" stroke-miterlimit="10"/>
<path d="M8.67617 46.9088C7.24326 46.9088 6.62555 45.8821 6.62555 44.5809C6.62555 43.2866 7.24326 42.186 8.67617 42.186C10.1091 42.186 10.7268 43.2842 10.7268 44.5809C10.7268 45.8821 10.1091 46.9088 8.67617 46.9088ZM8.67617 42.2576C7.90231 42.2576 7.18585 42.7882 7.18585 44.5786C7.18585 46.3781 7.90231 46.835 8.67617 46.835C9.44543 46.835 10.155 46.3781 10.155 44.5786C10.155 42.7882 9.44543 42.2576 8.67617 42.2576Z" fill="white" stroke="white" stroke-width="0.2664" stroke-miterlimit="10"/>
<path d="M15.7184 45.43V46.8489H12.6965V46.7774C12.9767 46.7774 13.0019 46.549 13.0019 46.1037V42.8529C13.0019 42.4537 12.9238 42.3107 12.6437 42.3107V42.2461H13.9319V42.3107C13.6518 42.3107 13.5163 42.4214 13.5163 42.8921V46.7774H13.7505C14.7976 46.7843 15.5922 46.7774 15.6519 45.43H15.7184Z" fill="white" stroke="white" stroke-width="0.2664" stroke-miterlimit="10"/>
<path d="M20.8739 45.43V46.8489H17.8519V46.7774C18.1321 46.7774 18.1574 46.549 18.1574 46.1037V42.8529C18.1574 42.4537 18.0793 42.3107 17.7991 42.3107V42.2461H19.0874V42.3107C18.8072 42.3107 18.6717 42.4214 18.6717 42.8921V46.7774H18.906C19.9531 46.7843 20.7476 46.7774 20.8073 45.43H20.8739Z" fill="white" stroke="white" stroke-width="0.2664" stroke-miterlimit="10"/>
<path d="M25.9714 45.5223V46.8512H22.8989V46.7797C23.1722 46.7797 23.2319 46.5974 23.2319 46.1521V42.8413C23.2319 42.4353 23.186 42.3176 22.8989 42.3176V42.2461H25.8864V43.3905H25.8153C25.7831 42.3315 24.9748 42.3176 24.1803 42.3176H23.7646V44.4887H24.2859C24.5454 44.4887 25.0942 44.4817 25.1126 43.8403H25.1838V45.2131H25.1126C25.0919 44.5648 24.5339 44.5579 24.2859 44.5579H23.7646V46.7751H24.0976C24.9702 46.7751 25.8359 46.8212 25.9002 45.52H25.9714V45.5223Z" fill="white" stroke="white" stroke-width="0.2664" stroke-miterlimit="10"/>
<path d="M31.72 45.5037L31.7843 46.505C31.3021 46.8257 30.976 46.9111 30.2802 46.9111C28.9529 46.9111 28.0206 46.0805 28.0206 44.5486C28.0206 42.9912 28.9506 42.186 30.2802 42.186C30.9507 42.186 31.3733 42.2506 31.7843 42.5852L31.72 43.5865H31.6488C31.557 42.4098 30.6981 42.2576 30.2825 42.2576C29.6257 42.2576 28.6866 42.479 28.6866 44.5463C28.6866 46.6596 29.6441 46.835 30.2825 46.835C30.6798 46.835 31.6098 46.6389 31.6488 45.5014H31.72V45.5037Z" fill="white" stroke="white" stroke-width="0.2664" stroke-miterlimit="10"/>
<path d="M37.3174 42.2461V43.3189H37.2462C37.2325 42.3176 36.2956 42.3107 36.1601 42.3107H35.6457V46.2952C35.6457 46.7197 35.8019 46.7797 36.0751 46.7797V46.8512H34.7203V46.7797C34.9935 46.7797 35.1497 46.7197 35.1497 46.2952V42.3107H34.6353C34.3368 42.3107 33.5606 42.3176 33.5492 43.3189H33.4849V42.2461H37.3174Z" fill="white" stroke="white" stroke-width="0.2664" stroke-miterlimit="10"/>
<path d="M40.4015 42.2461V42.3107C40.1213 42.3107 39.9973 42.3891 39.9973 42.7952V46.196C39.9973 46.6412 40.1282 46.7774 40.4015 46.7774V46.8489H39.0604V46.7774C39.3406 46.7774 39.4715 46.6389 39.4715 46.196V42.7952C39.4715 42.3891 39.3475 42.3107 39.0604 42.3107V42.2461H40.4015Z" fill="white" stroke="white" stroke-width="0.2664" stroke-miterlimit="10"/>
<path d="M44.2617 46.9088C42.8288 46.9088 42.2111 45.8821 42.2111 44.5809C42.2111 43.2866 42.8288 42.186 44.2617 42.186C45.6946 42.186 46.3123 43.2842 46.3123 44.5809C46.3123 45.8821 45.6946 46.9088 44.2617 46.9088ZM44.2617 42.2576C43.4879 42.2576 42.7714 42.7882 42.7714 44.5786C42.7714 46.3781 43.4879 46.835 44.2617 46.835C45.031 46.835 45.7406 46.3781 45.7406 44.5786C45.7406 42.7882 45.031 42.2576 44.2617 42.2576Z" fill="white" stroke="white" stroke-width="0.2664" stroke-miterlimit="10"/>
<path d="M52.8868 42.2461V42.3107C51.9683 42.3107 51.9889 42.9452 51.9889 43.8542V46.8512H51.8511L49.1162 43.2659V45.2293C49.1162 46.0991 49.1162 46.7797 49.9567 46.7797V46.8512H48.1196V46.7797C49.0381 46.7797 49.045 46.1129 49.045 45.2293V43.1828L48.7718 42.8229C48.3561 42.2992 48.1656 42.3245 47.9979 42.313V42.2484H49.006L51.9154 46.0944V43.8565C51.9154 42.9475 51.9154 42.313 51.0819 42.313V42.2484H52.8868V42.2461Z" fill="white" stroke="white" stroke-width="0.2664" stroke-miterlimit="10"/>
<path d="M3.60553 51.6707C3.71346 51.7999 3.76628 51.9637 3.76628 52.1645C3.76628 52.4229 3.66983 52.6236 3.47924 52.762C3.28865 52.9027 3.0062 52.972 2.6342 52.972H1.24951V49.9473H2.54694C2.8822 49.9473 3.14168 50.0142 3.32768 50.1503C3.51139 50.2864 3.60553 50.4779 3.60553 50.7248C3.60553 50.8909 3.5642 51.0339 3.48383 51.1493C3.40116 51.267 3.28864 51.3523 3.14627 51.41C3.34375 51.4585 3.49761 51.5438 3.60553 51.6707ZM1.5687 50.2149V51.3131H2.52627C2.76968 51.3131 2.95797 51.267 3.08886 51.1724C3.21975 51.0778 3.28635 50.9417 3.28635 50.764C3.28635 50.5864 3.21975 50.4502 3.08886 50.3556C2.95797 50.2634 2.76968 50.2149 2.52627 50.2149H1.5687ZM3.24042 52.5728C3.3782 52.4805 3.44709 52.3375 3.44709 52.1414C3.44709 51.763 3.17383 51.5761 2.6296 51.5761H1.5687V52.7112H2.6296C2.90057 52.7112 3.10264 52.6651 3.24042 52.5728Z" fill="white"/>
<path d="M7.17832 51.9294V52.9745H6.86373V51.9294L5.66046 49.9521H6.00031L7.03136 51.6502L8.06241 49.9521H8.3816L7.17832 51.9294Z" fill="white"/>
<path d="M14.3754 51.5532L13.76 52.1807V52.9744H13.4408V49.9497H13.76V51.777L15.5259 49.9497H15.891L14.589 51.3179L15.9828 52.9721H15.6039L14.3754 51.5532Z" fill="white"/>
<path d="M19.9898 52.1669H18.3135L17.953 52.9744H17.6223L18.9978 49.9497H19.3124L20.6879 52.9744H20.3526L19.9898 52.1669ZM19.875 51.9062L19.1517 50.2819L18.4283 51.9062H19.875Z" fill="white"/>
<path d="M22.9059 49.9497H23.2251V52.6975H24.9106V52.9744H22.9082V49.9497H22.9059Z" fill="white"/>
<path d="M29.1861 50.2267C29.4043 50.4113 29.5122 50.6651 29.5122 50.9881C29.5122 51.3111 29.4043 51.5626 29.1861 51.7472C28.968 51.9294 28.6672 52.0217 28.2837 52.0217H27.4754V52.9769H27.1562V49.9522H28.2837C28.6672 49.9499 28.968 50.0422 29.1861 50.2267ZM28.9588 51.5418C29.1173 51.4103 29.1953 51.2257 29.1953 50.9858C29.1953 50.7412 29.1173 50.552 28.9588 50.4228C28.8004 50.2913 28.573 50.2267 28.2745 50.2267H27.4754V51.7379H28.2745C28.573 51.7379 28.8004 51.6733 28.9588 51.5418Z" fill="white"/>
<path d="M33.6577 52.1669H31.9814L31.6208 52.9744H31.2902L32.6657 49.9497H32.9802L34.3558 52.9744H34.0205L33.6577 52.1669ZM33.5428 51.9062L32.8195 50.2819L32.0962 51.9062H33.5428Z" fill="white"/>
<path d="M37.0079 50.2266H35.9493V49.9497H38.3834V50.2266H37.3248V52.9744H37.0056V50.2266H37.0079Z" fill="white"/>
<path d="M42.3464 52.1669H40.6701L40.3096 52.9744H39.9789L41.3544 49.9497H41.669L43.0445 52.9744H42.7092L42.3464 52.1669ZM42.2293 51.9062L41.5059 50.2819L40.7826 51.9062H42.2293Z" fill="white"/>
<path d="M47.3151 52.9745L46.6285 52.0032C46.5505 52.0124 46.4701 52.0171 46.3874 52.0171H45.5791V52.9768H45.2599V49.9521H46.3874C46.7709 49.9521 47.0717 50.0444 47.2899 50.229C47.508 50.4136 47.616 50.6674 47.616 50.9904C47.616 51.2257 47.5563 51.4264 47.4369 51.5879C47.3174 51.7517 47.1475 51.8671 46.9271 51.9409L47.6619 52.9768H47.3151V52.9745ZM47.0626 51.5441C47.221 51.4126 47.2991 51.2257 47.2991 50.9881C47.2991 50.7435 47.221 50.5543 47.0626 50.4251C46.9041 50.2936 46.6768 50.229 46.3783 50.229H45.5791V51.7448H46.3783C46.6768 51.7425 46.9041 51.6779 47.0626 51.5441Z" fill="white"/>
<path d="M50.3902 52.6629C50.172 52.4391 50.0641 52.1115 50.0641 51.6824V49.9497H50.3833V51.6685C50.3833 52.0192 50.4613 52.2822 50.6198 52.4553C50.7782 52.6283 51.0056 52.7137 51.3041 52.7137C51.6049 52.7137 51.8346 52.6283 51.993 52.4553C52.1514 52.2822 52.2295 52.0215 52.2295 51.6685V49.9497H52.5395V51.6824C52.5395 52.1115 52.4316 52.4391 52.2157 52.6629C51.9999 52.8867 51.6968 52.9998 51.3064 52.9998C50.916 52.9998 50.6083 52.8867 50.3902 52.6629Z" fill="white"/>
<path d="M41.0453 13.0699C40.9649 10.7697 39.7479 8.35407 37.7868 6.60985C37.5801 6.42528 37.362 6.25224 37.1415 6.08844C37.0704 3.93816 35.5732 1.89171 33.7682 0.929622C31.7452 -0.152437 29.0539 -0.297789 26.5716 0.535096C26.3075 0.622768 26.0526 0.726591 25.8 0.835028C23.9102 -0.177816 21.398 0.10135 19.6666 1.18802C17.7239 2.40851 16.2519 4.67414 15.7284 7.25124C15.6733 7.52349 15.6319 7.79804 15.6021 8.0749C13.7834 9.21233 12.7684 11.538 12.8419 13.589C12.9223 15.8893 14.1393 18.3049 16.1004 20.0491C16.3071 20.2336 16.5252 20.4067 16.7457 20.5728C16.8191 22.7231 18.3163 24.7672 20.1167 25.7293C21.2717 26.3453 22.6449 26.6591 24.0709 26.6591C25.1433 26.6591 26.2478 26.4814 27.3133 26.1238C27.5751 26.0362 27.8323 25.9323 28.0849 25.8239C28.8863 26.253 29.7979 26.4561 30.7187 26.4561C31.9656 26.4561 33.2217 26.0961 34.2183 25.4686C36.161 24.2481 37.633 21.9802 38.1565 19.4054C38.2116 19.1331 38.253 18.8586 38.2828 18.5817C40.1038 17.4466 41.1165 15.121 41.0453 13.0699ZM37.9292 18.3325C37.1163 18.7847 36.1771 18.9832 35.2172 18.8863C34.7029 18.8355 34.2206 18.6878 33.7866 18.4664C33.9611 17.6219 34.0966 16.6414 34.0507 15.767C34.0943 15.7877 34.138 15.8108 34.1862 15.8247C34.5123 15.9146 34.8269 15.8293 35.068 15.5801C35.3573 15.2848 35.479 14.8257 35.3665 14.4358C35.1667 13.7413 34.4089 13.2545 33.658 13.3329C33.0403 13.3929 32.4203 13.7759 31.9955 14.355C31.1321 15.5363 31.6419 17.0567 32.48 17.9703C32.7326 18.2449 33.0288 18.4756 33.3526 18.6671C33.1643 19.5092 32.9439 20.1621 32.8635 20.3513C31.9335 22.55 30.5259 24.1327 28.5556 25.1825C28.4155 25.2586 28.2686 25.3209 28.1239 25.3902C27.3271 24.9103 26.6887 24.1927 26.2914 23.3068C26.0802 22.8338 25.9654 22.3401 25.9378 21.8533C26.753 21.5833 27.6646 21.2096 28.3972 20.7343C28.4018 20.7827 28.4018 20.8312 28.4155 20.8797C28.5005 21.2096 28.7324 21.438 29.0677 21.5257C29.4695 21.6318 29.9242 21.5049 30.2044 21.2119C30.7027 20.6905 30.744 19.7953 30.3008 19.1724C29.9403 18.6648 29.2996 18.3164 28.5878 18.2379C27.1365 18.0764 26.0825 19.2808 25.7151 20.4667C25.6049 20.8243 25.552 21.1957 25.5474 21.5764C24.7277 21.8325 24.0571 21.9663 23.8528 21.9917C21.4921 22.2847 19.4255 21.8487 17.5333 20.6605C17.3978 20.5751 17.2692 20.4805 17.1383 20.3882C17.1544 19.4538 17.4529 18.5402 18.0178 17.7511C18.3186 17.3289 18.6883 16.9852 19.0948 16.7175C19.7355 17.292 20.5116 17.8988 21.2878 18.2956C21.2487 18.3233 21.2074 18.3487 21.1707 18.3856C20.9295 18.6232 20.8469 18.9416 20.941 19.2762C21.0512 19.6776 21.3865 20.0098 21.7792 20.1068C22.4773 20.2798 23.2695 19.8691 23.5864 19.1724C23.839 18.614 23.8206 17.8619 23.5359 17.2136C22.9503 15.8731 21.3842 15.5547 20.1764 15.827C19.8135 15.9077 19.4668 16.0508 19.1384 16.2353C18.5069 15.6516 18.0569 15.1348 17.9329 14.9687C16.5023 13.0607 15.8432 11.0442 15.9213 8.80397C15.9259 8.64477 15.9442 8.48558 15.9603 8.32408C16.7732 7.87187 17.7124 7.67345 18.6746 7.77036C19.1889 7.82342 19.6712 7.97108 20.1052 8.19026C19.9306 9.03468 19.7952 10.0152 19.8411 10.8896C19.7975 10.8689 19.7538 10.8458 19.7056 10.832C19.3772 10.742 19.0649 10.8297 18.8215 11.0765C18.5322 11.3718 18.4128 11.8333 18.523 12.2209C18.7228 12.9153 19.476 13.4044 20.2315 13.3237C20.8492 13.2637 21.4715 12.8807 21.894 12.3016C22.7574 11.1204 22.2476 9.59994 21.4095 8.6863C21.1569 8.41175 20.8607 8.17872 20.5369 7.98723C20.7252 7.14512 20.9456 6.4945 21.026 6.30531C21.956 4.10659 23.3659 2.52387 25.3339 1.47411C25.474 1.39798 25.6209 1.33568 25.7656 1.26647C26.5624 1.74636 27.2008 2.46389 27.598 3.34984C27.8093 3.8228 27.9241 4.31653 27.9517 4.80335C27.1365 5.07328 26.2249 5.44704 25.4923 5.92232C25.4877 5.87387 25.4877 5.82542 25.474 5.77466C25.389 5.44474 25.1571 5.21633 24.8218 5.12866C24.4222 5.02483 23.9653 5.14942 23.6851 5.44243C23.1868 5.96385 23.1432 6.85903 23.5887 7.48196C23.9446 7.98261 24.6014 8.34023 25.3017 8.41636C26.7507 8.57556 27.807 7.37352 28.1744 6.18764C28.2846 5.83003 28.3375 5.45858 28.3421 5.08021C29.1618 4.82411 29.8324 4.68799 30.0367 4.66261C32.3951 4.37191 34.464 4.80565 36.3562 5.99384C36.4917 6.07921 36.6203 6.1738 36.7512 6.26609C36.7351 7.20049 36.4366 8.11412 35.8717 8.90317C35.5709 9.32538 35.2012 9.66915 34.7947 9.93678C34.154 9.3623 33.3779 8.75551 32.6017 8.35868C32.6408 8.331 32.6821 8.30562 32.7188 8.2687C32.96 8.03107 33.0403 7.71268 32.9485 7.37814C32.8383 6.97669 32.5007 6.64446 32.1103 6.54756C31.4122 6.37453 30.6177 6.7852 30.3031 7.48196C30.0482 8.04952 30.0666 8.78089 30.3536 9.44074C30.9392 10.7812 32.5053 11.0996 33.7131 10.8273C34.076 10.7443 34.4227 10.6036 34.7534 10.419C35.3849 11.0027 35.8349 11.5195 35.9589 11.6856C37.3895 13.5936 38.0486 15.6101 37.9705 17.8503C37.9613 18.0142 37.943 18.1733 37.9292 18.3325ZM33.8073 14.3388C33.8027 14.3412 33.7958 14.3458 33.7797 14.3642C33.5983 14.5557 33.5157 14.821 33.5524 15.0841C33.5547 15.1002 33.557 15.1164 33.5593 15.1325L33.5616 15.1464C33.5639 15.1556 33.5639 15.1648 33.5708 15.1856C33.5708 15.1879 33.5731 15.1879 33.5731 15.1902C33.7407 16.1638 33.6236 17.3012 33.4376 18.2679C32.9531 17.9519 32.5512 17.532 32.2756 17.029C32.0483 16.6114 31.8118 15.9723 31.9748 15.3009C32.1172 14.7172 32.5351 14.1981 33.0954 13.9074C33.6236 13.6352 34.3791 13.6167 34.8223 14.2027C34.634 14.0989 34.4112 14.0666 34.1977 14.1197C34.0507 14.1543 33.9198 14.2304 33.8073 14.3388ZM28.737 19.9591C28.7278 19.966 28.7187 19.9752 28.7003 19.9891L28.6888 19.9983C28.6819 20.0052 28.6727 20.0099 28.6612 20.0237C28.6589 20.026 28.659 20.026 28.6567 20.0283C27.9012 20.6605 26.8632 21.1288 25.9355 21.4472C25.9654 20.8658 26.1261 20.3075 26.4223 19.816C26.668 19.41 27.0998 18.884 27.7611 18.6902C28.3352 18.5217 28.9919 18.6256 29.5224 18.9693C30.0184 19.2923 30.4133 19.9406 30.1309 20.6213C30.1263 20.4044 30.0436 20.1944 29.8898 20.0352C29.7841 19.9268 29.6555 19.8507 29.5063 19.8068C29.5017 19.8045 29.4925 19.7999 29.4695 19.7953C29.2147 19.7353 28.946 19.793 28.737 19.9591ZM22.638 19.2485C22.6793 19.1031 22.6793 18.9509 22.6426 18.7986C22.6426 18.794 22.6426 18.7847 22.6357 18.764C22.5599 18.5079 22.3739 18.3049 22.1282 18.208C22.1145 18.201 22.1007 18.1964 22.0823 18.1895L22.0685 18.1849C22.0593 18.1803 22.0501 18.178 22.0318 18.1733C22.0295 18.1733 22.0272 18.1733 22.0272 18.1733C21.1041 17.8342 20.1833 17.1628 19.4438 16.5168C19.9375 16.2653 20.4726 16.1246 21.0191 16.1246C21.0444 16.1246 21.0673 16.1246 21.0926 16.1246C21.5656 16.1361 22.2361 16.2492 22.7322 16.7268C23.1639 17.142 23.405 17.7673 23.3728 18.3995C23.343 18.9924 22.9802 19.6615 22.2545 19.7538C22.4405 19.6384 22.5783 19.4607 22.638 19.2485ZM20.0799 12.3247C20.0845 12.3224 20.0937 12.3155 20.0983 12.3109L20.1075 12.2993C20.2889 12.1055 20.3715 11.8425 20.3348 11.5795C20.3325 11.5633 20.3302 11.5495 20.3279 11.5287L20.3256 11.5149C20.3233 11.5057 20.3233 11.4964 20.3187 11.478C20.3187 11.4757 20.3164 11.4734 20.3164 11.471C20.1488 10.4974 20.2659 9.3623 20.4519 8.3956C20.9364 8.71168 21.3383 9.13158 21.6138 9.63454C21.8412 10.0521 22.0777 10.6912 21.9147 11.3626C21.7723 11.9463 21.3544 12.4677 20.7941 12.7561C20.2659 13.0284 19.5104 13.0468 19.0672 12.4608C19.2578 12.5669 19.4806 12.5969 19.6918 12.5439C19.8365 12.507 19.9674 12.4331 20.0799 12.3247ZM25.1502 6.70445C25.1617 6.69522 25.1754 6.68599 25.1892 6.67445L25.2007 6.66523C25.2099 6.65831 25.2168 6.65369 25.2305 6.63985C25.2328 6.63754 25.2328 6.63523 25.2351 6.63523C25.9883 6.00307 27.0286 5.53702 27.954 5.21633C27.9241 5.79773 27.7634 6.35607 27.4672 6.84749C27.2215 7.25355 26.7875 7.77959 26.1284 7.97339C25.5543 8.14412 24.8953 8.03799 24.3671 7.69422C23.8711 7.37122 23.4762 6.72291 23.7586 6.0446C23.7632 6.26147 23.8459 6.47142 23.9997 6.62831C24.1054 6.73675 24.2339 6.81519 24.3832 6.85672C24.3878 6.85903 24.397 6.86364 24.42 6.86826C24.6748 6.92824 24.9412 6.86826 25.1502 6.70445ZM32.8704 10.5413C32.8451 10.5413 32.8199 10.5413 32.7946 10.5413C32.3216 10.5297 31.6534 10.4167 31.1551 9.93909C30.7233 9.5238 30.4845 8.90087 30.5144 8.2664C30.5442 7.67346 30.907 7.00438 31.6327 6.91209C31.449 7.02514 31.3089 7.2028 31.2492 7.41505C31.2079 7.56041 31.2079 7.71268 31.2446 7.86264C31.2446 7.86957 31.2446 7.87879 31.2538 7.89956C31.3296 8.15565 31.5133 8.35868 31.7613 8.45789C31.7705 8.46251 31.7819 8.46712 31.7911 8.46943L31.821 8.48096C31.8302 8.48558 31.8371 8.48788 31.8577 8.4925C31.86 8.4925 31.8623 8.4925 31.8646 8.4948C32.7877 8.83396 33.7085 9.50534 34.4457 10.1513C33.9497 10.4005 33.4146 10.5413 32.8704 10.5413ZM29.9678 4.28193C29.7933 4.305 29.1389 4.44112 28.326 4.6903C28.2502 3.78128 27.8851 2.85841 27.2536 2.0486C26.9482 1.65638 26.59 1.33799 26.2019 1.07728C27.8667 0.405896 29.7566 0.20748 31.5156 0.546632C34.2183 1.06574 36.2965 3.04067 36.6915 5.46319C36.7098 5.57624 36.719 5.68699 36.7282 5.80004C34.7763 4.50342 32.3813 3.952 29.9678 4.28193ZM20.6563 6.17611C20.5897 6.33761 20.3807 6.97669 20.1878 7.80727C19.3681 7.41967 18.3898 7.27432 17.3749 7.41967C16.8834 7.48888 16.4311 7.64116 16.0108 7.8488C16.2657 6.06306 17.0373 4.32346 18.2084 2.95993C20.0064 0.869637 22.7505 0.0459775 25.0354 0.91347C25.141 0.952692 25.2443 1.00115 25.3454 1.0496C23.2488 2.10166 21.5748 3.91278 20.6563 6.17611ZM17.632 15.2248C17.74 15.3632 18.1832 15.8662 18.8032 16.4499C18.0591 16.9713 17.4437 17.7488 17.0625 18.704C16.8788 19.1654 16.7824 19.6361 16.7502 20.1044C15.338 18.9924 14.2243 17.4489 13.6364 15.7485C12.7317 13.1391 13.3953 10.3405 15.2852 8.78551C15.3725 8.71399 15.4643 8.64938 15.5562 8.58478C15.4161 10.9312 16.1417 13.2937 17.632 15.2248ZM22.5393 22.4739C22.9962 22.4739 23.4578 22.4416 23.9171 22.3793C24.0916 22.3562 24.746 22.2201 25.5589 21.9709C25.6347 22.88 25.9998 23.8028 26.6313 24.6126C26.9367 25.0049 27.2972 25.3209 27.6853 25.584C26.0205 26.2553 24.1306 26.4561 22.3693 26.1169C19.6689 25.5978 17.5884 23.6229 17.1934 21.2003C17.1751 21.085 17.1636 20.9696 17.1544 20.8543C18.7366 21.904 20.6058 22.4739 22.5393 22.4739ZM33.2309 20.4874C33.2975 20.3236 33.5088 19.6845 33.7017 18.8517C34.3125 19.14 35.006 19.2969 35.7408 19.2969C35.9957 19.2969 36.2529 19.2785 36.5123 19.2416C37.0038 19.1723 37.4561 19.0201 37.8764 18.8124C37.6215 20.5982 36.8499 22.3378 35.6788 23.7013C33.8808 25.7939 31.1367 26.6153 28.8518 25.7478C28.7462 25.7085 28.6452 25.6601 28.5418 25.6116C30.6384 24.5619 32.3124 22.7508 33.2309 20.4874ZM36.2552 11.4387C36.1472 11.3003 35.7041 10.7974 35.084 10.2136C35.8281 9.69222 36.4435 8.91471 36.8247 7.95954C37.0107 7.49811 37.1048 7.02745 37.137 6.5591C38.5492 7.67345 39.6629 9.21464 40.2508 10.915C41.1532 13.5244 40.4919 16.323 38.602 17.878C38.5147 17.9496 38.4229 18.0142 38.3287 18.0788C38.4711 15.7324 37.7455 13.3698 36.2552 11.4387Z" fill="white"/>
</svg>
