<svg width="61" height="61" viewBox="0 0 61 61" fill="none" xmlns="http://www.w3.org/2000/svg">
<rect x="0.5" y="0.5" width="60" height="60" rx="30" stroke="#5A6EA3"/>
<mask id="path-2-outside-1_1448_8749" maskUnits="userSpaceOnUse" x="16" y="18" width="28" height="26" fill="black">
<rect fill="white" x="16" y="18" width="28" height="26"/>
<path d="M29.5674 19.0074C27.7213 19.0396 25.2007 19.3922 22.8534 20.4743C20.1546 21.7183 17.6742 24.0028 17.0283 27.7989C17.0131 27.8894 17.0172 27.9823 17.0401 28.071C17.063 28.1597 17.1043 28.2421 17.1611 28.3125C17.2178 28.3828 17.2887 28.4394 17.3687 28.4782C17.4486 28.5171 17.5358 28.5372 17.624 28.5373H29.7281V33.3121C29.727 33.3956 29.7418 33.4785 29.7717 33.556C29.8016 33.6335 29.846 33.704 29.9024 33.7635C29.9587 33.8229 30.0258 33.8701 30.0998 33.9024C30.1737 33.9346 30.2531 33.9512 30.3334 33.9512C30.4136 33.9512 30.493 33.9346 30.567 33.9024C30.6409 33.8701 30.708 33.8229 30.7644 33.7635C30.8207 33.704 30.8651 33.6335 30.895 33.556C30.9249 33.4785 30.9397 33.3956 30.9386 33.3121V28.5373H40.3665C40.4467 28.5385 40.5264 28.5231 40.6008 28.4919C40.6752 28.4608 40.7429 28.4146 40.8 28.356C40.8572 28.2973 40.9025 28.2275 40.9335 28.1504C40.9644 28.0734 40.9804 27.9907 40.9804 27.9072C40.9804 27.8237 40.9644 27.7411 40.9335 27.664C40.9025 27.587 40.8572 27.5171 40.8 27.4585C40.7429 27.3999 40.6752 27.3537 40.6008 27.3225C40.5264 27.2914 40.4467 27.276 40.3665 27.2772H30.3334H18.3994C19.136 24.3929 21.0675 22.6717 23.3357 21.6261C25.7946 20.4927 28.6106 20.2086 30.3144 20.2675C30.327 20.2679 30.3397 20.2679 30.3523 20.2675C32.0561 20.2086 34.8721 20.4927 37.3311 21.6261C39.79 22.7596 41.8777 24.6702 42.4469 28.0155C42.4577 28.0997 42.4846 28.1808 42.5262 28.2538C42.5678 28.3269 42.6231 28.3904 42.6889 28.4406C42.7547 28.4909 42.8295 28.5267 42.9089 28.5461C42.9883 28.5655 43.0707 28.5679 43.151 28.5533C43.2314 28.5387 43.3081 28.5073 43.3765 28.4611C43.4449 28.4149 43.5036 28.3547 43.5492 28.2843C43.5947 28.2138 43.6261 28.1345 43.6414 28.0511C43.6567 27.9677 43.6557 27.8819 43.6384 27.7989C42.9925 24.0028 40.5122 21.7183 37.8133 20.4743C35.1307 19.2377 32.2222 18.9473 30.3523 19.0074C30.341 19.0077 30.3256 19.0071 30.3144 19.0074C30.0807 18.9999 29.8311 19.0028 29.5674 19.0074ZM17.5578 31.7369C17.4074 31.7541 17.2686 31.8294 17.1689 31.9478C17.0691 32.0663 17.0156 32.2194 17.0188 32.3769V37.1418C17.0186 37.1517 17.0186 37.1615 17.0188 37.1714C17.045 37.6599 17.1981 38.1402 17.52 38.4906C17.6964 38.6826 17.9164 38.8216 18.163 38.9139L17.0566 42.1037C17.0211 42.1831 17.0018 42.2694 17.0001 42.357C16.9984 42.4446 17.0143 42.5317 17.0467 42.6125C17.0791 42.6934 17.1274 42.7663 17.1884 42.8267C17.2494 42.8871 17.3219 42.9335 17.4011 42.9631C17.4803 42.9926 17.5646 43.0047 17.6486 42.9984C17.7325 42.9921 17.8143 42.9677 17.8887 42.9266C17.9631 42.8856 18.0284 42.8289 18.0805 42.7601C18.1326 42.6913 18.1704 42.6119 18.1914 42.527L19.4018 39.0419H21.8983L23.1087 42.527C23.1297 42.6119 23.1675 42.6913 23.2196 42.7601C23.2717 42.8289 23.337 42.8856 23.4114 42.9266C23.4858 42.9677 23.5676 42.9921 23.6515 42.9984C23.7355 43.0047 23.8198 42.9926 23.899 42.9631C23.9783 42.9335 24.0507 42.8871 24.1117 42.8267C24.1727 42.7663 24.221 42.6934 24.2534 42.6125C24.2858 42.5317 24.3017 42.4446 24.3 42.357C24.2983 42.2694 24.279 42.1831 24.2435 42.1037L23.1844 39.0419H23.6761C23.7563 39.0431 23.8359 39.0277 23.9103 38.9965C23.9847 38.9654 24.0525 38.9192 24.1096 38.8605C24.1667 38.8019 24.2121 38.7321 24.243 38.655C24.274 38.578 24.2899 38.4953 24.2899 38.4118C24.2899 38.3283 24.274 38.2457 24.243 38.1686C24.2121 38.0916 24.1667 38.0217 24.1096 37.9631C24.0525 37.9045 23.9847 37.8583 23.9103 37.8271C23.8359 37.796 23.7563 37.7806 23.6761 37.7818H18.8533C18.6024 37.7751 18.4844 37.7069 18.3994 37.6144C18.3145 37.5219 18.2433 37.3648 18.2292 37.1025V32.3769C18.2311 32.2872 18.2145 32.1981 18.1806 32.1156C18.1468 32.0331 18.0964 31.9591 18.0328 31.8985C17.9692 31.8379 17.894 31.7922 17.8121 31.7643C17.7302 31.7364 17.6435 31.7271 17.5578 31.7369ZM42.9765 31.7369C42.8261 31.7541 42.6873 31.8294 42.5875 31.9478C42.4878 32.0663 42.4342 32.2194 42.4375 32.3769V37.1025C42.4234 37.3648 42.3522 37.5219 42.2673 37.6144C42.1823 37.7069 42.0643 37.775 41.8134 37.7818H36.9906C36.9104 37.7806 36.8308 37.796 36.7564 37.8271C36.682 37.8583 36.6142 37.9045 36.5571 37.9631C36.5 38.0217 36.4546 38.0916 36.4237 38.1686C36.3927 38.2457 36.3768 38.3283 36.3768 38.4118C36.3768 38.4953 36.3927 38.578 36.4237 38.655C36.4546 38.7321 36.5 38.8019 36.5571 38.8605C36.6142 38.9192 36.682 38.9654 36.7564 38.9965C36.8308 39.0277 36.9104 39.0431 36.9906 39.0419H37.4824L36.4232 42.1037C36.3877 42.1831 36.3684 42.2694 36.3667 42.357C36.365 42.4446 36.3809 42.5317 36.4133 42.6125C36.4457 42.6934 36.494 42.7663 36.555 42.8267C36.616 42.8871 36.6885 42.9335 36.7677 42.9631C36.8469 42.9926 36.9312 43.0047 37.0152 42.9984C37.0991 42.9921 37.1809 42.9677 37.2553 42.9266C37.3297 42.8856 37.395 42.8289 37.4471 42.7601C37.4992 42.6913 37.537 42.6119 37.558 42.527L38.7684 39.0419H41.2649L42.4753 42.527C42.4963 42.6119 42.5341 42.6913 42.5862 42.7601C42.6383 42.8289 42.7037 42.8856 42.778 42.9266C42.8524 42.9677 42.9342 42.9921 43.0181 42.9984C43.1021 43.0047 43.1864 42.9926 43.2656 42.9631C43.3449 42.9335 43.4173 42.8871 43.4783 42.8267C43.5394 42.7663 43.5876 42.6934 43.62 42.6125C43.6524 42.5317 43.6683 42.4446 43.6666 42.357C43.6649 42.2694 43.6456 42.1831 43.6101 42.1037L42.5037 38.9139C42.7503 38.8216 42.9703 38.6826 43.1467 38.4906C43.4686 38.1402 43.6217 37.6599 43.6479 37.1714C43.6481 37.1615 43.6481 37.1517 43.6479 37.1418V32.3769C43.6497 32.2872 43.6332 32.1981 43.5993 32.1156C43.5654 32.0331 43.515 31.9591 43.4515 31.8985C43.3879 31.8379 43.3127 31.7922 43.2307 31.7643C43.1488 31.7364 43.0621 31.7271 42.9765 31.7369ZM25.1324 34.9464C25.0529 34.9503 24.9749 34.9704 24.9029 35.0056C24.8309 35.0409 24.7662 35.0905 24.7126 35.1518C24.6591 35.213 24.6176 35.2847 24.5906 35.3626C24.5636 35.4406 24.5517 35.5233 24.5554 35.606C24.5591 35.6888 24.5785 35.77 24.6123 35.8449C24.6462 35.9199 24.6939 35.9872 24.7528 36.0429C24.8116 36.0987 24.8804 36.1419 24.9553 36.1699C25.0302 36.198 25.1096 36.2105 25.1891 36.2066H29.7281V41.6902H28.6407C28.6186 41.689 28.5965 41.689 28.5745 41.6902C28.495 41.6947 28.4171 41.7155 28.3454 41.7513C28.2736 41.7872 28.2093 41.8374 28.1562 41.8991C28.1031 41.9608 28.0621 42.0328 28.0357 42.111C28.0093 42.1892 27.998 42.272 28.0023 42.3547C28.0066 42.4375 28.0266 42.5185 28.061 42.5933C28.0955 42.668 28.1437 42.7349 28.203 42.7902C28.2623 42.8455 28.3314 42.8881 28.4065 42.9156C28.4816 42.9431 28.5612 42.9549 28.6407 42.9504H32.026C32.1062 42.9515 32.1859 42.9361 32.2603 42.905C32.3347 42.8739 32.4024 42.8276 32.4595 42.769C32.5167 42.7104 32.562 42.6405 32.593 42.5635C32.6239 42.4865 32.6399 42.4038 32.6399 42.3203C32.6399 42.2368 32.6239 42.1541 32.593 42.0771C32.562 42.0001 32.5167 41.9302 32.4595 41.8716C32.4024 41.813 32.3347 41.7667 32.2603 41.7356C32.1859 41.7045 32.1062 41.689 32.026 41.6902H30.9386V36.2066H35.4776C35.5578 36.2077 35.6374 36.1923 35.7118 36.1612C35.7863 36.13 35.854 36.0838 35.9111 36.0252C35.9682 35.9666 36.0136 35.8967 36.0445 35.8197C36.0755 35.7426 36.0914 35.66 36.0914 35.5765C36.0914 35.493 36.0755 35.4103 36.0445 35.3333C36.0136 35.2562 35.9682 35.1864 35.9111 35.1278C35.854 35.0691 35.7863 35.0229 35.7118 34.9918C35.6374 34.9606 35.5578 34.9452 35.4776 34.9464H25.1891C25.1702 34.9455 25.1513 34.9455 25.1324 34.9464Z"/>
</mask>
<path d="M29.5674 19.0074C27.7213 19.0396 25.2007 19.3922 22.8534 20.4743C20.1546 21.7183 17.6742 24.0028 17.0283 27.7989C17.0131 27.8894 17.0172 27.9823 17.0401 28.071C17.063 28.1597 17.1043 28.2421 17.1611 28.3125C17.2178 28.3828 17.2887 28.4394 17.3687 28.4782C17.4486 28.5171 17.5358 28.5372 17.624 28.5373H29.7281V33.3121C29.727 33.3956 29.7418 33.4785 29.7717 33.556C29.8016 33.6335 29.846 33.704 29.9024 33.7635C29.9587 33.8229 30.0258 33.8701 30.0998 33.9024C30.1737 33.9346 30.2531 33.9512 30.3334 33.9512C30.4136 33.9512 30.493 33.9346 30.567 33.9024C30.6409 33.8701 30.708 33.8229 30.7644 33.7635C30.8207 33.704 30.8651 33.6335 30.895 33.556C30.9249 33.4785 30.9397 33.3956 30.9386 33.3121V28.5373H40.3665C40.4467 28.5385 40.5264 28.5231 40.6008 28.4919C40.6752 28.4608 40.7429 28.4146 40.8 28.356C40.8572 28.2973 40.9025 28.2275 40.9335 28.1504C40.9644 28.0734 40.9804 27.9907 40.9804 27.9072C40.9804 27.8237 40.9644 27.7411 40.9335 27.664C40.9025 27.587 40.8572 27.5171 40.8 27.4585C40.7429 27.3999 40.6752 27.3537 40.6008 27.3225C40.5264 27.2914 40.4467 27.276 40.3665 27.2772H30.3334H18.3994C19.136 24.3929 21.0675 22.6717 23.3357 21.6261C25.7946 20.4927 28.6106 20.2086 30.3144 20.2675C30.327 20.2679 30.3397 20.2679 30.3523 20.2675C32.0561 20.2086 34.8721 20.4927 37.3311 21.6261C39.79 22.7596 41.8777 24.6702 42.4469 28.0155C42.4577 28.0997 42.4846 28.1808 42.5262 28.2538C42.5678 28.3269 42.6231 28.3904 42.6889 28.4406C42.7547 28.4909 42.8295 28.5267 42.9089 28.5461C42.9883 28.5655 43.0707 28.5679 43.151 28.5533C43.2314 28.5387 43.3081 28.5073 43.3765 28.4611C43.4449 28.4149 43.5036 28.3547 43.5492 28.2843C43.5947 28.2138 43.6261 28.1345 43.6414 28.0511C43.6567 27.9677 43.6557 27.8819 43.6384 27.7989C42.9925 24.0028 40.5122 21.7183 37.8133 20.4743C35.1307 19.2377 32.2222 18.9473 30.3523 19.0074C30.341 19.0077 30.3256 19.0071 30.3144 19.0074C30.0807 18.9999 29.8311 19.0028 29.5674 19.0074ZM17.5578 31.7369C17.4074 31.7541 17.2686 31.8294 17.1689 31.9478C17.0691 32.0663 17.0156 32.2194 17.0188 32.3769V37.1418C17.0186 37.1517 17.0186 37.1615 17.0188 37.1714C17.045 37.6599 17.1981 38.1402 17.52 38.4906C17.6964 38.6826 17.9164 38.8216 18.163 38.9139L17.0566 42.1037C17.0211 42.1831 17.0018 42.2694 17.0001 42.357C16.9984 42.4446 17.0143 42.5317 17.0467 42.6125C17.0791 42.6934 17.1274 42.7663 17.1884 42.8267C17.2494 42.8871 17.3219 42.9335 17.4011 42.9631C17.4803 42.9926 17.5646 43.0047 17.6486 42.9984C17.7325 42.9921 17.8143 42.9677 17.8887 42.9266C17.9631 42.8856 18.0284 42.8289 18.0805 42.7601C18.1326 42.6913 18.1704 42.6119 18.1914 42.527L19.4018 39.0419H21.8983L23.1087 42.527C23.1297 42.6119 23.1675 42.6913 23.2196 42.7601C23.2717 42.8289 23.337 42.8856 23.4114 42.9266C23.4858 42.9677 23.5676 42.9921 23.6515 42.9984C23.7355 43.0047 23.8198 42.9926 23.899 42.9631C23.9783 42.9335 24.0507 42.8871 24.1117 42.8267C24.1727 42.7663 24.221 42.6934 24.2534 42.6125C24.2858 42.5317 24.3017 42.4446 24.3 42.357C24.2983 42.2694 24.279 42.1831 24.2435 42.1037L23.1844 39.0419H23.6761C23.7563 39.0431 23.8359 39.0277 23.9103 38.9965C23.9847 38.9654 24.0525 38.9192 24.1096 38.8605C24.1667 38.8019 24.2121 38.7321 24.243 38.655C24.274 38.578 24.2899 38.4953 24.2899 38.4118C24.2899 38.3283 24.274 38.2457 24.243 38.1686C24.2121 38.0916 24.1667 38.0217 24.1096 37.9631C24.0525 37.9045 23.9847 37.8583 23.9103 37.8271C23.8359 37.796 23.7563 37.7806 23.6761 37.7818H18.8533C18.6024 37.7751 18.4844 37.7069 18.3994 37.6144C18.3145 37.5219 18.2433 37.3648 18.2292 37.1025V32.3769C18.2311 32.2872 18.2145 32.1981 18.1806 32.1156C18.1468 32.0331 18.0964 31.9591 18.0328 31.8985C17.9692 31.8379 17.894 31.7922 17.8121 31.7643C17.7302 31.7364 17.6435 31.7271 17.5578 31.7369ZM42.9765 31.7369C42.8261 31.7541 42.6873 31.8294 42.5875 31.9478C42.4878 32.0663 42.4342 32.2194 42.4375 32.3769V37.1025C42.4234 37.3648 42.3522 37.5219 42.2673 37.6144C42.1823 37.7069 42.0643 37.775 41.8134 37.7818H36.9906C36.9104 37.7806 36.8308 37.796 36.7564 37.8271C36.682 37.8583 36.6142 37.9045 36.5571 37.9631C36.5 38.0217 36.4546 38.0916 36.4237 38.1686C36.3927 38.2457 36.3768 38.3283 36.3768 38.4118C36.3768 38.4953 36.3927 38.578 36.4237 38.655C36.4546 38.7321 36.5 38.8019 36.5571 38.8605C36.6142 38.9192 36.682 38.9654 36.7564 38.9965C36.8308 39.0277 36.9104 39.0431 36.9906 39.0419H37.4824L36.4232 42.1037C36.3877 42.1831 36.3684 42.2694 36.3667 42.357C36.365 42.4446 36.3809 42.5317 36.4133 42.6125C36.4457 42.6934 36.494 42.7663 36.555 42.8267C36.616 42.8871 36.6885 42.9335 36.7677 42.9631C36.8469 42.9926 36.9312 43.0047 37.0152 42.9984C37.0991 42.9921 37.1809 42.9677 37.2553 42.9266C37.3297 42.8856 37.395 42.8289 37.4471 42.7601C37.4992 42.6913 37.537 42.6119 37.558 42.527L38.7684 39.0419H41.2649L42.4753 42.527C42.4963 42.6119 42.5341 42.6913 42.5862 42.7601C42.6383 42.8289 42.7037 42.8856 42.778 42.9266C42.8524 42.9677 42.9342 42.9921 43.0181 42.9984C43.1021 43.0047 43.1864 42.9926 43.2656 42.9631C43.3449 42.9335 43.4173 42.8871 43.4783 42.8267C43.5394 42.7663 43.5876 42.6934 43.62 42.6125C43.6524 42.5317 43.6683 42.4446 43.6666 42.357C43.6649 42.2694 43.6456 42.1831 43.6101 42.1037L42.5037 38.9139C42.7503 38.8216 42.9703 38.6826 43.1467 38.4906C43.4686 38.1402 43.6217 37.6599 43.6479 37.1714C43.6481 37.1615 43.6481 37.1517 43.6479 37.1418V32.3769C43.6497 32.2872 43.6332 32.1981 43.5993 32.1156C43.5654 32.0331 43.515 31.9591 43.4515 31.8985C43.3879 31.8379 43.3127 31.7922 43.2307 31.7643C43.1488 31.7364 43.0621 31.7271 42.9765 31.7369ZM25.1324 34.9464C25.0529 34.9503 24.9749 34.9704 24.9029 35.0056C24.8309 35.0409 24.7662 35.0905 24.7126 35.1518C24.6591 35.213 24.6176 35.2847 24.5906 35.3626C24.5636 35.4406 24.5517 35.5233 24.5554 35.606C24.5591 35.6888 24.5785 35.77 24.6123 35.8449C24.6462 35.9199 24.6939 35.9872 24.7528 36.0429C24.8116 36.0987 24.8804 36.1419 24.9553 36.1699C25.0302 36.198 25.1096 36.2105 25.1891 36.2066H29.7281V41.6902H28.6407C28.6186 41.689 28.5965 41.689 28.5745 41.6902C28.495 41.6947 28.4171 41.7155 28.3454 41.7513C28.2736 41.7872 28.2093 41.8374 28.1562 41.8991C28.1031 41.9608 28.0621 42.0328 28.0357 42.111C28.0093 42.1892 27.998 42.272 28.0023 42.3547C28.0066 42.4375 28.0266 42.5185 28.061 42.5933C28.0955 42.668 28.1437 42.7349 28.203 42.7902C28.2623 42.8455 28.3314 42.8881 28.4065 42.9156C28.4816 42.9431 28.5612 42.9549 28.6407 42.9504H32.026C32.1062 42.9515 32.1859 42.9361 32.2603 42.905C32.3347 42.8739 32.4024 42.8276 32.4595 42.769C32.5167 42.7104 32.562 42.6405 32.593 42.5635C32.6239 42.4865 32.6399 42.4038 32.6399 42.3203C32.6399 42.2368 32.6239 42.1541 32.593 42.0771C32.562 42.0001 32.5167 41.9302 32.4595 41.8716C32.4024 41.813 32.3347 41.7667 32.2603 41.7356C32.1859 41.7045 32.1062 41.689 32.026 41.6902H30.9386V36.2066H35.4776C35.5578 36.2077 35.6374 36.1923 35.7118 36.1612C35.7863 36.13 35.854 36.0838 35.9111 36.0252C35.9682 35.9666 36.0136 35.8967 36.0445 35.8197C36.0755 35.7426 36.0914 35.66 36.0914 35.5765C36.0914 35.493 36.0755 35.4103 36.0445 35.3333C36.0136 35.2562 35.9682 35.1864 35.9111 35.1278C35.854 35.0691 35.7863 35.0229 35.7118 34.9918C35.6374 34.9606 35.5578 34.9452 35.4776 34.9464H25.1891C25.1702 34.9455 25.1513 34.9455 25.1324 34.9464Z" fill="#19357F"/>
<path d="M29.5674 19.0074C27.7213 19.0396 25.2007 19.3922 22.8534 20.4743C20.1546 21.7183 17.6742 24.0028 17.0283 27.7989C17.0131 27.8894 17.0172 27.9823 17.0401 28.071C17.063 28.1597 17.1043 28.2421 17.1611 28.3125C17.2178 28.3828 17.2887 28.4394 17.3687 28.4782C17.4486 28.5171 17.5358 28.5372 17.624 28.5373H29.7281V33.3121C29.727 33.3956 29.7418 33.4785 29.7717 33.556C29.8016 33.6335 29.846 33.704 29.9024 33.7635C29.9587 33.8229 30.0258 33.8701 30.0998 33.9024C30.1737 33.9346 30.2531 33.9512 30.3334 33.9512C30.4136 33.9512 30.493 33.9346 30.567 33.9024C30.6409 33.8701 30.708 33.8229 30.7644 33.7635C30.8207 33.704 30.8651 33.6335 30.895 33.556C30.9249 33.4785 30.9397 33.3956 30.9386 33.3121V28.5373H40.3665C40.4467 28.5385 40.5264 28.5231 40.6008 28.4919C40.6752 28.4608 40.7429 28.4146 40.8 28.356C40.8572 28.2973 40.9025 28.2275 40.9335 28.1504C40.9644 28.0734 40.9804 27.9907 40.9804 27.9072C40.9804 27.8237 40.9644 27.7411 40.9335 27.664C40.9025 27.587 40.8572 27.5171 40.8 27.4585C40.7429 27.3999 40.6752 27.3537 40.6008 27.3225C40.5264 27.2914 40.4467 27.276 40.3665 27.2772H30.3334H18.3994C19.136 24.3929 21.0675 22.6717 23.3357 21.6261C25.7946 20.4927 28.6106 20.2086 30.3144 20.2675C30.327 20.2679 30.3397 20.2679 30.3523 20.2675C32.0561 20.2086 34.8721 20.4927 37.3311 21.6261C39.79 22.7596 41.8777 24.6702 42.4469 28.0155C42.4577 28.0997 42.4846 28.1808 42.5262 28.2538C42.5678 28.3269 42.6231 28.3904 42.6889 28.4406C42.7547 28.4909 42.8295 28.5267 42.9089 28.5461C42.9883 28.5655 43.0707 28.5679 43.151 28.5533C43.2314 28.5387 43.3081 28.5073 43.3765 28.4611C43.4449 28.4149 43.5036 28.3547 43.5492 28.2843C43.5947 28.2138 43.6261 28.1345 43.6414 28.0511C43.6567 27.9677 43.6557 27.8819 43.6384 27.7989C42.9925 24.0028 40.5122 21.7183 37.8133 20.4743C35.1307 19.2377 32.2222 18.9473 30.3523 19.0074C30.341 19.0077 30.3256 19.0071 30.3144 19.0074C30.0807 18.9999 29.8311 19.0028 29.5674 19.0074ZM17.5578 31.7369C17.4074 31.7541 17.2686 31.8294 17.1689 31.9478C17.0691 32.0663 17.0156 32.2194 17.0188 32.3769V37.1418C17.0186 37.1517 17.0186 37.1615 17.0188 37.1714C17.045 37.6599 17.1981 38.1402 17.52 38.4906C17.6964 38.6826 17.9164 38.8216 18.163 38.9139L17.0566 42.1037C17.0211 42.1831 17.0018 42.2694 17.0001 42.357C16.9984 42.4446 17.0143 42.5317 17.0467 42.6125C17.0791 42.6934 17.1274 42.7663 17.1884 42.8267C17.2494 42.8871 17.3219 42.9335 17.4011 42.9631C17.4803 42.9926 17.5646 43.0047 17.6486 42.9984C17.7325 42.9921 17.8143 42.9677 17.8887 42.9266C17.9631 42.8856 18.0284 42.8289 18.0805 42.7601C18.1326 42.6913 18.1704 42.6119 18.1914 42.527L19.4018 39.0419H21.8983L23.1087 42.527C23.1297 42.6119 23.1675 42.6913 23.2196 42.7601C23.2717 42.8289 23.337 42.8856 23.4114 42.9266C23.4858 42.9677 23.5676 42.9921 23.6515 42.9984C23.7355 43.0047 23.8198 42.9926 23.899 42.9631C23.9783 42.9335 24.0507 42.8871 24.1117 42.8267C24.1727 42.7663 24.221 42.6934 24.2534 42.6125C24.2858 42.5317 24.3017 42.4446 24.3 42.357C24.2983 42.2694 24.279 42.1831 24.2435 42.1037L23.1844 39.0419H23.6761C23.7563 39.0431 23.8359 39.0277 23.9103 38.9965C23.9847 38.9654 24.0525 38.9192 24.1096 38.8605C24.1667 38.8019 24.2121 38.7321 24.243 38.655C24.274 38.578 24.2899 38.4953 24.2899 38.4118C24.2899 38.3283 24.274 38.2457 24.243 38.1686C24.2121 38.0916 24.1667 38.0217 24.1096 37.9631C24.0525 37.9045 23.9847 37.8583 23.9103 37.8271C23.8359 37.796 23.7563 37.7806 23.6761 37.7818H18.8533C18.6024 37.7751 18.4844 37.7069 18.3994 37.6144C18.3145 37.5219 18.2433 37.3648 18.2292 37.1025V32.3769C18.2311 32.2872 18.2145 32.1981 18.1806 32.1156C18.1468 32.0331 18.0964 31.9591 18.0328 31.8985C17.9692 31.8379 17.894 31.7922 17.8121 31.7643C17.7302 31.7364 17.6435 31.7271 17.5578 31.7369ZM42.9765 31.7369C42.8261 31.7541 42.6873 31.8294 42.5875 31.9478C42.4878 32.0663 42.4342 32.2194 42.4375 32.3769V37.1025C42.4234 37.3648 42.3522 37.5219 42.2673 37.6144C42.1823 37.7069 42.0643 37.775 41.8134 37.7818H36.9906C36.9104 37.7806 36.8308 37.796 36.7564 37.8271C36.682 37.8583 36.6142 37.9045 36.5571 37.9631C36.5 38.0217 36.4546 38.0916 36.4237 38.1686C36.3927 38.2457 36.3768 38.3283 36.3768 38.4118C36.3768 38.4953 36.3927 38.578 36.4237 38.655C36.4546 38.7321 36.5 38.8019 36.5571 38.8605C36.6142 38.9192 36.682 38.9654 36.7564 38.9965C36.8308 39.0277 36.9104 39.0431 36.9906 39.0419H37.4824L36.4232 42.1037C36.3877 42.1831 36.3684 42.2694 36.3667 42.357C36.365 42.4446 36.3809 42.5317 36.4133 42.6125C36.4457 42.6934 36.494 42.7663 36.555 42.8267C36.616 42.8871 36.6885 42.9335 36.7677 42.9631C36.8469 42.9926 36.9312 43.0047 37.0152 42.9984C37.0991 42.9921 37.1809 42.9677 37.2553 42.9266C37.3297 42.8856 37.395 42.8289 37.4471 42.7601C37.4992 42.6913 37.537 42.6119 37.558 42.527L38.7684 39.0419H41.2649L42.4753 42.527C42.4963 42.6119 42.5341 42.6913 42.5862 42.7601C42.6383 42.8289 42.7037 42.8856 42.778 42.9266C42.8524 42.9677 42.9342 42.9921 43.0181 42.9984C43.1021 43.0047 43.1864 42.9926 43.2656 42.9631C43.3449 42.9335 43.4173 42.8871 43.4783 42.8267C43.5394 42.7663 43.5876 42.6934 43.62 42.6125C43.6524 42.5317 43.6683 42.4446 43.6666 42.357C43.6649 42.2694 43.6456 42.1831 43.6101 42.1037L42.5037 38.9139C42.7503 38.8216 42.9703 38.6826 43.1467 38.4906C43.4686 38.1402 43.6217 37.6599 43.6479 37.1714C43.6481 37.1615 43.6481 37.1517 43.6479 37.1418V32.3769C43.6497 32.2872 43.6332 32.1981 43.5993 32.1156C43.5654 32.0331 43.515 31.9591 43.4515 31.8985C43.3879 31.8379 43.3127 31.7922 43.2307 31.7643C43.1488 31.7364 43.0621 31.7271 42.9765 31.7369ZM25.1324 34.9464C25.0529 34.9503 24.9749 34.9704 24.9029 35.0056C24.8309 35.0409 24.7662 35.0905 24.7126 35.1518C24.6591 35.213 24.6176 35.2847 24.5906 35.3626C24.5636 35.4406 24.5517 35.5233 24.5554 35.606C24.5591 35.6888 24.5785 35.77 24.6123 35.8449C24.6462 35.9199 24.6939 35.9872 24.7528 36.0429C24.8116 36.0987 24.8804 36.1419 24.9553 36.1699C25.0302 36.198 25.1096 36.2105 25.1891 36.2066H29.7281V41.6902H28.6407C28.6186 41.689 28.5965 41.689 28.5745 41.6902C28.495 41.6947 28.4171 41.7155 28.3454 41.7513C28.2736 41.7872 28.2093 41.8374 28.1562 41.8991C28.1031 41.9608 28.0621 42.0328 28.0357 42.111C28.0093 42.1892 27.998 42.272 28.0023 42.3547C28.0066 42.4375 28.0266 42.5185 28.061 42.5933C28.0955 42.668 28.1437 42.7349 28.203 42.7902C28.2623 42.8455 28.3314 42.8881 28.4065 42.9156C28.4816 42.9431 28.5612 42.9549 28.6407 42.9504H32.026C32.1062 42.9515 32.1859 42.9361 32.2603 42.905C32.3347 42.8739 32.4024 42.8276 32.4595 42.769C32.5167 42.7104 32.562 42.6405 32.593 42.5635C32.6239 42.4865 32.6399 42.4038 32.6399 42.3203C32.6399 42.2368 32.6239 42.1541 32.593 42.0771C32.562 42.0001 32.5167 41.9302 32.4595 41.8716C32.4024 41.813 32.3347 41.7667 32.2603 41.7356C32.1859 41.7045 32.1062 41.689 32.026 41.6902H30.9386V36.2066H35.4776C35.5578 36.2077 35.6374 36.1923 35.7118 36.1612C35.7863 36.13 35.854 36.0838 35.9111 36.0252C35.9682 35.9666 36.0136 35.8967 36.0445 35.8197C36.0755 35.7426 36.0914 35.66 36.0914 35.5765C36.0914 35.493 36.0755 35.4103 36.0445 35.3333C36.0136 35.2562 35.9682 35.1864 35.9111 35.1278C35.854 35.0691 35.7863 35.0229 35.7118 34.9918C35.6374 34.9606 35.5578 34.9452 35.4776 34.9464H25.1891C25.1702 34.9455 25.1513 34.9455 25.1324 34.9464Z" stroke="#19357F" stroke-width="0.4" mask="url(#path-2-outside-1_1448_8749)"/>
</svg>
