<svg width="19" height="14" viewBox="0 0 19 14" fill="none" xmlns="http://www.w3.org/2000/svg">
<path fill-rule="evenodd" clip-rule="evenodd" d="M16.4182 0.78809C17.1865 1.00142 17.7915 1.62999 17.9969 2.42822C18.37 3.87491 18.37 6.89346 18.37 6.89346C18.37 6.89346 18.37 9.9119 17.9969 11.3587C17.7915 12.1569 17.1865 12.7855 16.4182 12.9989C15.0258 13.3865 9.44207 13.3865 9.44207 13.3865C9.44207 13.3865 3.85833 13.3865 2.46587 12.9989C1.69756 12.7855 1.09249 12.1569 0.887146 11.3587C0.514099 9.9119 0.514099 6.89346 0.514099 6.89346C0.514099 6.89346 0.514099 3.87491 0.887146 2.42822C1.09249 1.62999 1.69756 1.00142 2.46587 0.78809C3.85833 0.400391 9.44207 0.400391 9.44207 0.400391C9.44207 0.400391 15.0258 0.400391 16.4182 0.78809ZM7.76809 4.35263V9.99878L12.2321 7.17581L7.76809 4.35263Z" fill="white"/>
</svg>
