<svg width="17" height="16" viewBox="0 0 17 16" fill="none" xmlns="http://www.w3.org/2000/svg">
<path d="M4.47726 2.28711C4.45581 1.32061 3.75948 0.584473 2.62875 0.584473C1.49802 0.584473 0.758789 1.32061 0.758789 2.28711C0.758789 3.23359 1.47617 3.99093 2.58584 3.99093H2.60697C3.75948 3.99093 4.47726 3.23359 4.47726 2.28711Z" fill="white"/>
<path d="M4.25957 5.3364H0.954246V15.1936H4.25957V5.3364Z" fill="white"/>
<path d="M12.3742 5.1049C14.5492 5.1049 16.1798 6.51405 16.1798 9.54177L16.1797 15.1936H12.8745V9.91998C12.8745 8.59536 12.3962 7.69147 11.1997 7.69147C10.2865 7.69147 9.74259 8.30082 9.5037 8.88937C9.41631 9.10029 9.39485 9.39417 9.39485 9.68878V15.1939H6.08914C6.08914 15.1939 6.1327 6.26158 6.08914 5.33663H9.39485V6.73283C9.83355 6.06165 10.6192 5.1049 12.3742 5.1049Z" fill="white"/>
</svg>
