<svg width="17" height="18" viewBox="0 0 17 18" fill="none" xmlns="http://www.w3.org/2000/svg">
<path d="M16.3631 5.57093C16.354 4.88936 16.2262 4.21456 15.9854 3.57672C15.7766 3.03871 15.4577 2.5501 15.049 2.1421C14.6403 1.73411 14.1509 1.41571 13.612 1.20724C12.9813 0.970889 12.315 0.843086 11.6415 0.829281C10.7744 0.790584 10.4994 0.779785 8.29817 0.779785C6.09692 0.779785 5.81477 0.779785 4.95392 0.829281C4.28071 0.843188 3.61474 0.970988 2.98433 1.20724C2.44534 1.41557 1.95584 1.73392 1.54715 2.14193C1.13846 2.54994 0.819579 3.03862 0.610911 3.57672C0.373687 4.20588 0.245949 4.8709 0.233218 5.54304C0.194458 6.40965 0.182739 6.68413 0.182739 8.88172C0.182739 11.0793 0.182739 11.3601 0.233218 12.2204C0.24674 12.8935 0.373839 13.5577 0.610911 14.1885C0.819929 14.7265 1.13905 15.2149 1.54787 15.6228C1.9567 16.0306 2.44625 16.3488 2.98524 16.5571C3.61391 16.803 4.28 16.9399 4.95483 16.9621C5.82289 17.0008 6.09782 17.0125 8.29907 17.0125C10.5003 17.0125 10.7825 17.0125 11.6433 16.9621C12.3168 16.9488 12.9831 16.8213 13.6138 16.585C14.1526 16.3763 14.6419 16.0578 15.0505 15.6498C15.4592 15.2419 15.7782 14.7534 15.9872 14.2155C16.2243 13.5856 16.3514 12.9214 16.3649 12.2474C16.4037 11.3817 16.4154 11.1072 16.4154 8.90872C16.4136 6.71113 16.4136 6.43215 16.3631 5.57093ZM8.29276 13.0375C5.99055 13.0375 4.12552 11.1756 4.12552 8.87722C4.12552 6.57884 5.99055 4.71691 8.29276 4.71691C9.39798 4.71691 10.4579 5.15523 11.2394 5.93544C12.021 6.71565 12.46 7.77384 12.46 8.87722C12.46 9.9806 12.021 11.0388 11.2394 11.819C10.4579 12.5992 9.39798 13.0375 8.29276 13.0375ZM12.6259 5.53314C12.4982 5.53325 12.3718 5.50824 12.2539 5.45953C12.1359 5.41082 12.0287 5.33937 11.9385 5.24926C11.8482 5.15916 11.7767 5.05216 11.7279 4.93441C11.6791 4.81666 11.654 4.69046 11.6541 4.56303C11.6541 4.43569 11.6793 4.3096 11.7281 4.19196C11.7769 4.07431 11.8484 3.96742 11.9386 3.87738C12.0288 3.78733 12.1359 3.71591 12.2537 3.66718C12.3716 3.61845 12.4979 3.59337 12.6254 3.59337C12.753 3.59337 12.8793 3.61845 12.9971 3.66718C13.1149 3.71591 13.222 3.78733 13.3122 3.87738C13.4024 3.96742 13.4739 4.07431 13.5227 4.19196C13.5716 4.3096 13.5967 4.43569 13.5967 4.56303C13.5967 5.09938 13.1622 5.53314 12.6259 5.53314Z" fill="white"/>
<path d="M8.29087 11.5802C9.78588 11.5802 10.9978 10.3703 10.9978 8.87774C10.9978 7.38522 9.78588 6.17529 8.29087 6.17529C6.79586 6.17529 5.58392 7.38522 5.58392 8.87774C5.58392 10.3703 6.79586 11.5802 8.29087 11.5802Z" fill="white"/>
</svg>
