<svg width="19" height="14" viewBox="0 0 19 14" fill="none" xmlns="http://www.w3.org/2000/svg">
<path fill-rule="evenodd" clip-rule="evenodd" d="M16.7708 1.06442C17.5598 1.2835 18.1812 1.92903 18.3921 2.74878C18.7753 4.2345 18.7753 7.33447 18.7753 7.33447C18.7753 7.33447 18.7753 10.4343 18.3921 11.9202C18.1812 12.7399 17.5598 13.3854 16.7708 13.6046C15.3409 14.0027 9.60653 14.0027 9.60653 14.0027C9.60653 14.0027 3.87219 14.0027 2.44217 13.6046C1.65313 13.3854 1.03174 12.7399 0.820854 11.9202C0.437744 10.4343 0.437744 7.33447 0.437744 7.33447C0.437744 7.33447 0.437744 4.2345 0.820854 2.74878C1.03174 1.92903 1.65313 1.2835 2.44217 1.06442C3.87219 0.66626 9.60653 0.66626 9.60653 0.66626C9.60653 0.66626 15.3409 0.66626 16.7708 1.06442ZM7.8874 4.72511V10.5236L12.4718 7.62444L7.8874 4.72511Z" fill="#5A6EA3"/>
</svg>
