<svg width="38" height="38" viewBox="0 0 38 38" fill="none" xmlns="http://www.w3.org/2000/svg">
<path fill-rule="evenodd" clip-rule="evenodd" d="M1.24011 19.0041C1.24011 9.11651 9.25555 1.10107 19.1431 1.10107C29.0306 1.10107 37.0461 9.11651 37.0461 19.0041C37.0461 28.8916 29.0306 36.907 19.1431 36.907C9.25555 36.907 1.24011 28.8916 1.24011 19.0041Z" stroke="white" stroke-width="1.34272"/>
<path fill-rule="evenodd" clip-rule="evenodd" d="M25.55 13.3949C26.2561 13.591 26.8122 14.1687 27.001 14.9023C27.3439 16.2319 27.3439 19.0062 27.3439 19.0062C27.3439 19.0062 27.3439 21.7804 27.001 23.1102C26.8122 23.8438 26.2561 24.4215 25.55 24.6177C24.2703 24.9739 19.1384 24.9739 19.1384 24.9739C19.1384 24.9739 14.0065 24.9739 12.7267 24.6177C12.0206 24.4215 11.4644 23.8438 11.2757 23.1102C10.9329 21.7804 10.9329 19.0062 10.9329 19.0062C10.9329 19.0062 10.9329 16.2319 11.2757 14.9023C11.4644 14.1687 12.0206 13.591 12.7267 13.3949C14.0065 13.0386 19.1384 13.0386 19.1384 13.0386C19.1384 13.0386 24.2703 13.0386 25.55 13.3949ZM17.5999 16.671V21.8603L21.7026 19.2657L17.5999 16.671Z" fill="white"/>
</svg>
